<?xml version="1.0" standalone="no"?>
<!DOCTYPE svg PUBLIC "-//W3C//DTD SVG 1.1//EN" "http://www.w3.org/Graphics/SVG/1.1/DTD/svg11.dtd" >
<svg xmlns="http://www.w3.org/2000/svg">
<metadata>Generated by IcoMoon</metadata>
<defs>
<font id="icomoon" horiz-adv-x="1024">
<font-face units-per-em="1024" ascent="960" descent="-64" />
<missing-glyph horiz-adv-x="1024" />
<glyph unicode="&#x20;" horiz-adv-x="512" d="" />
<glyph unicode="&#xe900;" glyph-name="analysis" d="M579.054 768.412c-48.994 48.992-114.13 75.976-183.418 75.976-69.286 0-134.426-26.982-183.42-75.976-101.134-101.136-101.134-265.698 0-366.836 48.994-48.992 114.132-75.976 183.42-75.976 69.286 0 134.424 26.982 183.418 75.976 48.992 48.992 75.974 114.132 75.974 183.418s-26.982 134.424-75.974 183.418zM233.106 747.522c43.412 43.412 101.134 67.322 162.528 67.322s119.114-23.91 162.526-67.322c34.264-34.262 56.366-77.442 64.164-124.302l-80.518-78.738c-7.864 4.446-16.746 6.778-25.78 6.77-18.226 0-34.314-9.314-43.764-23.428l-118.346 37.134c0.006 0.342 0.026 0.684 0.026 1.028 0 29.026-23.614 52.642-52.642 52.642-29.026 0-52.642-23.616-52.642-52.642 0-9.488 2.536-18.392 6.948-26.090l-62.094-64.366c-47.116 87.118-33.93 198.468 39.594 271.992zM539.128 498.612c0-12.736-10.364-23.1-23.1-23.1s-23.1 10.364-23.1 23.1c0 12.736 10.364 23.1 23.1 23.1s23.1-10.362 23.1-23.1zM324.402 565.99c0-12.736-10.364-23.1-23.1-23.1-12.738 0-23.102 10.364-23.102 23.1s10.364 23.1 23.102 23.1c12.736-0.002 23.1-10.364 23.1-23.1zM558.162 422.464c-43.412-43.412-101.132-67.322-162.526-67.322s-119.116 23.908-162.528 67.322c-8.49 8.488-16.306 17.628-23.372 27.334l67.13 69.586c7.532-3.972 15.92-6.044 24.436-6.036 18.226 0 34.314 9.314 43.764 23.428l118.346-37.134c-0.006-0.342-0.026-0.684-0.026-1.028 0-29.026 23.614-52.642 52.642-52.642 29.026 0 52.642 23.616 52.642 52.642 0 8.944-2.25 17.37-6.2 24.754l63.016 61.622c-0.002-61.394-23.912-119.114-67.324-162.526zM264.828 735.682l19.38-22.296c45.808 39.815 110.032 52.091 167.62 32.033l9.718 27.898c-67.556 23.532-142.934 9.11-196.718-37.635zM499.46 755.415l-15.368-25.229c7.862-4.796 15.32-10.222 22.302-16.226l19.266 22.398c-8.202 7.052-16.964 13.425-26.2 19.057zM430.974 418.766c-33.238-7.006-67.396-4.058-98.792 8.52l-10.986-27.422c23.622-9.482 48.838-14.356 74.292-14.358 13.87 0 27.794 1.446 41.58 4.352l-6.094 28.908zM765.668 347.67l-21.448-21.448-53.212 56.878c62.98 92.062 78.142 207.234 45.47 310.424l42.218 41.286c7.658-4.14 16.23-6.302 24.936-6.292 29.026 0 52.642 23.616 52.642 52.642 0 8.596-2.084 16.71-5.754 23.886l90.632 88.626v-45.808h29.542v95.682h-95.68v-29.542h44.676l-89.436-87.456c-8.064 4.757-17.258 7.263-26.62 7.256-29.026 0-52.642-23.616-52.642-52.642 0-9.288 2.428-18.016 6.668-25.6l-32.356-31.64c-17.418 41.48-42.964 80.328-76.688 114.052-139.496 139.494-366.464 139.49-505.958 0-124.262-124.262-137.828-317.936-40.71-457.356l-24.872-25.782c-7.532 3.972-15.921 6.044-24.436 6.036-29.026 0.002-52.64-23.614-52.64-52.64s23.614-52.642 52.642-52.642c29.028 0 52.642 23.616 52.642 52.642 0 9.49-2.536 18.392-6.95 26.090l21.73 22.526c7.141-8.624 14.68-16.91 22.592-24.832 69.748-69.746 161.364-104.618 252.98-104.618 70.328 0 140.648 20.576 201.084 61.676l53.338-57.014-22.18-22.18 258.328-257.426 137.794 137.79-258.332 257.426zM803.634 804.26c12.736 0 23.1-10.364 23.1-23.1s-10.364-23.1-23.1-23.1c-12.738 0-23.1 10.364-23.1 23.1s10.362 23.1 23.1 23.1zM52.642 285.134c-12.736 0-23.1 10.364-23.1 23.1s10.364 23.1 23.1 23.1c12.738 0 23.1-10.364 23.1-23.1-0.002-12.738-10.364-23.1-23.1-23.1zM163.546 352.904c-127.974 127.974-127.974 336.202 0 464.18 63.986 63.988 148.036 95.978 232.088 95.978s168.104-31.994 232.090-95.978c127.974-127.974 127.974-336.204 0-464.18-127.97-127.972-336.208-127.972-464.178 0zM620.596 306.796c19.234 15.572 36.812 33.084 52.456 52.258l50.27-53.73-52.362-52.362-50.364 53.834zM886.172-5.804l-216.476 215.722 96.012 96.012 216.476-215.72-96.012-96.014zM765.69 263.044l-42.272-42.27 20.892-20.89 21.38 21.382 81.532-81.532 20.888 20.888-102.42 102.422zM872.548 114.46l20.89 20.888 21.892-21.894-20.888-20.888-21.894 21.894zM160.057 212.264h29.542v-32.186h-29.542v32.186zM160.057 31.864h29.542v-32.186h-29.542v32.186zM403.36 150.188h29.542v-32.184h-29.542v32.184zM826.732 415.884h29.542v-32.186h-29.542v32.186zM860.25 672.226h29.542v-32.186h-29.542v32.186zM958.152 536.492h29.542v-32.186h-29.542v32.186z" />
<glyph unicode="&#xe901;" glyph-name="angle-down" d="M570.923 150.458l427.696 428.333c16.644 15.774 24.963 35.472 24.963 59.132s-8.328 43.358-24.963 59.132l-49.281 49.93c-16.207 16.209-35.907 24.314-59.12 24.314-22.774 0-42.709-8.102-59.785-24.314l-318.643-319.288-319.3 319.302c-16.207 16.205-35.907 24.309-59.123 24.309-22.772 0-42.713-8.102-59.783-24.309l-49.274-49.934c-16.207-16.207-24.309-35.925-24.309-59.132 0-23.216 8.102-42.93 24.309-59.132l427.696-428.343c17.081-16.214 37.011-24.325 59.785-24.325 23.214-0.002 42.925 8.111 59.132 24.325z" />
<glyph unicode="&#xe902;" glyph-name="angle-left" d="M213.017 389.077l428.333-427.696c15.774-16.644 35.472-24.963 59.132-24.963s43.358 8.328 59.132 24.963l49.93 49.281c16.209 16.207 24.314 35.907 24.314 59.12 0 22.774-8.102 42.709-24.314 59.785l-319.288 318.643 319.302 319.3c16.205 16.207 24.309 35.907 24.309 59.123 0 22.772-8.102 42.713-24.309 59.783l-49.934 49.274c-16.207 16.207-35.925 24.309-59.132 24.309-23.216 0-42.93-8.102-59.132-24.309l-428.343-427.696c-16.214-17.081-24.325-37.011-24.325-59.785-0.002-23.214 8.112-42.925 24.325-59.132z" />
<glyph unicode="&#xe903;" glyph-name="angle-right" d="M809.542 507.341l-428.333 427.696c-15.774 16.644-35.472 24.963-59.132 24.963s-43.358-8.328-59.132-24.963l-49.93-49.281c-16.209-16.207-24.314-35.907-24.314-59.12 0-22.774 8.102-42.709 24.314-59.785l319.288-318.643-319.302-319.299c-16.205-16.207-24.309-35.907-24.309-59.123 0-22.772 8.102-42.713 24.309-59.783l49.934-49.274c16.207-16.207 35.925-24.309 59.132-24.309 23.216 0 42.93 8.102 59.132 24.309l428.343 427.696c16.214 17.081 24.325 37.011 24.325 59.785 0.002 23.214-8.111 42.925-24.325 59.132z" />
<glyph unicode="&#xe904;" glyph-name="angle-up" d="M452.659 746.983l-427.696-428.333c-16.644-15.774-24.963-35.472-24.963-59.132s8.328-43.358 24.963-59.132l49.281-49.93c16.207-16.209 35.907-24.314 59.12-24.314 22.774 0 42.709 8.102 59.785 24.314l318.643 319.288 319.299-319.302c16.207-16.205 35.907-24.309 59.123-24.309 22.772 0 42.713 8.102 59.783 24.309l49.274 49.934c16.207 16.207 24.309 35.925 24.309 59.132 0 23.216-8.102 42.93-24.309 59.132l-427.696 428.343c-17.081 16.214-37.011 24.325-59.785 24.325-23.214 0.002-42.925-8.112-59.132-24.325z" />
<glyph unicode="&#xe905;" glyph-name="arrow-down" d="M466.8 18.8c25-25 65.6-25 90.6 0l320 320c25 25 25 65.6 0 90.6s-65.6 25-90.6 0l-210.8-211v613.6c0 35.4-28.6 64-64 64s-64-28.6-64-64v-613.4l-210.8 210.6c-25 25-65.6 25-90.6 0s-25-65.6 0-90.6l320-320z" />
<glyph unicode="&#xe906;" glyph-name="arrow-left" d="M82.8 493.2c-25-25-25-65.6 0-90.6l320-320c25-25 65.6-25 90.6 0s25 65.6 0 90.6l-211 210.8h613.6c35.4 0 64 28.6 64 64s-28.6 64-64 64h-613.4l210.6 210.8c25 25 25 65.6 0 90.6s-65.6 25-90.6 0l-320-320z" />
<glyph unicode="&#xe907;" glyph-name="arrow-right" d="M941.2 402.8c25 25 25 65.6 0 90.6l-320 320c-25 25-65.6 25-90.6 0s-25-65.6 0-90.6l211-210.8h-613.6c-35.4 0-64-28.6-64-64s28.6-64 64-64h613.4l-210.6-210.8c-25-25-25-65.6 0-90.6s65.6-25 90.6 0l320 320z" />
<glyph unicode="&#xe908;" glyph-name="arrow-up" d="M557.2 877.2c-25 25-65.6 25-90.6 0l-320-320c-25-25-25-65.6 0-90.6s65.6-25 90.6 0l210.8 211v-613.6c0-35.4 28.6-64 64-64s64 28.6 64 64v613.6l210.8-210.8c25-25 65.6-25 90.6 0s25 65.6 0 90.6l-320 320z" />
<glyph unicode="&#xe909;" glyph-name="bezier" d="M795.691 629.333h-78.891c76.8-59.733 120.917-159.36 125.227-288.725 41.915-0.378 75.747-34.445 75.747-76.413 0-2.887-0.16-5.736-0.472-8.54l0.031 0.345v-42.667c0.267-2.416 0.419-5.219 0.419-8.056 0-42.91-34.786-77.696-77.696-77.696-2.838 0-5.64 0.152-8.398 0.449l0.342-0.030h-42.667c-2.416-0.267-5.219-0.419-8.056-0.419-42.91 0-77.696 34.786-77.696 77.696 0 2.838 0.152 5.64 0.449 8.398l-0.030-0.342v42.667c-0.285 2.476-0.448 5.345-0.448 8.251 0 41.57 33.249 75.374 74.604 76.27l0.083 0.001c-3.371 91.52-31.872 226.859-162.901 272.683-7.932-34.019-37.997-58.974-73.89-58.974-2.859 0-5.681 0.158-8.457 0.467l0.342-0.031h-42.667c-2.435-0.278-5.257-0.436-8.115-0.436-35.893 0-65.957 24.955-73.789 58.462l-0.101 0.513c-131.029-45.739-159.531-181.163-162.901-272.683 41.439-0.897 74.688-34.701 74.688-76.271 0-2.907-0.163-5.776-0.479-8.598l0.032 0.347v-42.667c0.267-2.416 0.419-5.219 0.419-8.056 0-42.91-34.786-77.696-77.696-77.696-2.838 0-5.64 0.152-8.398 0.449l0.342-0.030h-42.667c-2.416-0.267-5.219-0.419-8.056-0.419-42.91 0-77.696 34.786-77.696 77.696 0 2.838 0.152 5.64 0.449 8.398l-0.030-0.342v42.667c-0.28 2.458-0.441 5.307-0.441 8.193 0 42.043 33.953 76.156 75.936 76.415h0.025c4.267 129.365 48.427 228.992 125.227 288.725h-79.104c-13.006-31.539-43.511-53.333-79.106-53.333-47.128 0-85.333 38.205-85.333 85.333s38.205 85.333 85.333 85.333c35.595 0 66.1-21.794 78.899-52.767l0.207-0.567h177.835c0.688 41.627 34.594 75.109 76.321 75.109 2.889 0 5.741-0.161 8.547-0.473l-0.345 0.031h42.667c2.461 0.281 5.312 0.442 8.202 0.442 41.727 0 75.633-33.481 76.32-75.044l0.001-0.065h177.835c13.006 31.539 43.511 53.333 79.106 53.333 47.128 0 85.333-38.205 85.333-85.333s-38.205-85.333-85.333-85.333c-35.595 0-66.1 21.794-78.899 52.767l-0.207 0.567z" />
<glyph unicode="&#xe90a;" glyph-name="blueprint" d="M292.257 956.202c-20.789-7.796-35.782-21.989-45.977-43.779l-5.397-11.394-0.6-90.356-0.6-90.556h-168.118l-11.594-11.594v-552.131h-24.188c-23.988 0-24.188 0-29.985-5.796l-5.797-5.798v-196.704l11.594-11.595h428.19c302.852 0 429.191 0.6 432.189 2.199 8.396 4.598 9.595 12.394 9.595 66.767v50.977h26.188c22.588 0 28.186 0.6 40.979 4.997 8.196 2.799 18.591 7.396 23.389 10.195 20.99 12.994 40.38 37.782 47.377 60.371 3.798 12.393 3.999 18.79 3.999 164.719v151.726l-4.999 4.798c-6.796 6.997-20.39 6.997-28.386 0.201l-5.597-4.798-1-97.153-1-96.953-9.595 5.997c-5.196 3.198-16.192 7.996-24.188 10.795-13.993 4.798-17.392 4.997-58.971 4.997h-44.179v584.315l40.581-0.999c35.383-1 41.779-1.599 51.774-5.397 15.993-6.197 31.384-20.79 38.782-36.582l5.796-12.594 1-98.551 1-98.752 5.597-4.798c7.996-6.796 21.589-6.796 28.386 0.199l4.999 4.798v101.751c0 115.144 0 115.543-15.793 139.532-14.792 22.789-33.584 37.182-58.971 45.778-14.592 4.798-16.192 4.998-74.164 4.998h-59.371l-11.594-11.594v-168.318h-401.804v82.96c0 52.773-0.799 86.557-2.199 93.354-4.997 24.188-22.988 46.777-45.377 57.172-15.592 7.196-45.978 8.396-61.971 2.599zM343.232 910.824c13.594-10.995 15.592-16.592 16.393-45.178l0.6-25.588h-78.362v24.388c0 29.785 3.198 38.581 17.792 47.977 8.195 5.197 10.594 5.797 22.588 5.197 11.394-0.6 14.594-1.599 20.99-6.797zM359.824 638.158v-161.921h-77.962v323.842h77.962v-161.921zM239.883 565.393v-114.743l30.985-72.565c20.99-49.375 32.584-74.164 36.182-77.163l4.997-4.597h200.302c221.692 0 206.7-1 211.298 12.993 2.598 7.997 0.199 18.792-5.397 23.389-2.6 2-37.782 2.799-184.51 3.598l-181.311 1 48.375 111.946 0.6 115.543 0.4 115.345h401.804v-431.59l9.595-11.195 56.773-1.199c65.567-1.399 71.365-2.598 90.155-19.79 14.993-13.793 22.189-29.784 22.189-49.975 0.199-13.194-0.799-16.991-6.397-28.386-7.996-16.393-22.189-29.786-37.782-35.584-7.796-2.798-18.191-4.597-33.982-5.397l-22.589-1.199v21.39c0 22.988-2.598 33.183-9.595 36.982-2.999 1.598-116.543 2.198-387.011 2.198h-383.013v523.745h137.933v-114.745zM347.23 433.658c-8.396-21.99-26.387-61.17-27.587-59.971-1.199 1.399-11.394 24.188-24.787 56.172l-2.799 6.397h28.186c21.789 0 27.786-0.6 26.987-2.598zM119.941 92.224c0-23.988 0-24.188 5.797-29.985 4.598-4.597 7.596-5.796 14.193-5.796 17.592 0 21.989 7.796 21.989 38.981v20.99h77.962v-24.189c0-23.988 0-24.188 5.798-29.985 4.597-4.597 7.595-5.796 14.192-5.796 17.592 0 21.99 7.796 21.99 38.981v20.99h77.962v-24.189c0-23.988 0-24.188 5.798-29.985 4.597-4.597 7.595-5.796 14.192-5.796 17.592 0 21.99 7.796 21.99 38.981v20.99h77.962v-24.189c0-23.988 0-24.188 5.798-29.985 4.597-4.597 7.595-5.796 14.192-5.796 17.592 0 21.99 7.796 21.99 38.981v20.99h77.962v-24.189c0-23.988 0-24.188 5.798-29.985 4.597-4.597 7.595-5.796 14.192-5.796 17.592 0 21.99 7.796 21.99 38.981v20.99h77.962v-24.189c0-23.988 0-24.188 5.798-29.985 4.597-4.597 7.595-5.796 14.192-5.796 17.592 0 21.99 7.796 21.99 38.981v20.99h77.962v-139.933h-797.611v139.933h77.962v-24.189zM989.317 542.404c-4.598-4.598-5.798-7.597-5.798-14.194 0-12.194 8.196-19.99 20.99-19.99 13.194 0 18.991 6.196 18.991 19.99s-5.798 19.991-18.991 19.991c-7.597 0-10.394-1-15.192-5.798z" />
<glyph unicode="&#xe90b;" glyph-name="brain" d="M633.28 126.56h-242.56c-15.68 0-27.36 12.48-27.36 28.96v7.040c0 59.84-24.8 118.24-69.76 164.64-58.72 60.64-89.12 140.64-85.44 225.12 6.72 155.68 133.92 283.2 289.44 290.24 84.32 3.84 163.68-25.92 224.32-83.84s94.080-136.16 94.080-220c0-80.8-31.36-156.8-88.16-214.080-43.36-43.68-67.36-99.36-67.36-156.64v-14.24c0.16-14.88-12.16-27.2-27.2-27.2zM512.16 827.36c-4.64 0-9.12-0.16-13.76-0.32-147.52-6.72-268-127.68-274.4-275.2-3.52-80.16 25.28-156 81.12-213.6 47.84-49.28 74.080-111.68 74.080-175.52v-7.040c0-7.68 4.96-13.28 11.68-13.28h242.56c6.4 0 11.68 5.28 11.68 11.68v14.24c0 61.44 25.6 120.96 71.84 167.68 53.92 54.4 83.68 126.56 83.68 203.040 0 79.52-31.68 153.6-89.28 208.64-54.4 51.52-124.64 79.68-199.2 79.68zM610.080 75.84h-196.16c-19.52 0-35.36 14.88-35.36 33.28 0 18.24 15.84 33.28 35.36 33.28 2.080 0 4.074-0.826 5.544-2.296s2.296-3.464 2.296-5.544c0-2.078-0.826-4.074-2.296-5.544s-3.464-2.296-5.544-2.296c-10.72 0-19.68-7.84-19.68-17.44s8.8-17.44 19.68-17.44h196.16c10.88 0 19.68 7.84 19.68 17.44s-8.8 17.44-19.68 17.44c-2.078 0-4.072 0.826-5.544 2.296-1.47 1.47-2.296 3.466-2.296 5.544 0 2.080 0.826 4.074 2.296 5.544 1.472 1.47 3.466 2.296 5.544 2.296 19.52 0 35.36-14.88 35.36-33.28s-15.84-33.28-35.36-33.28zM610.080 25.28h-196.16c-19.52 0-35.36 14.88-35.36 33.28 0 18.24 15.84 33.28 35.36 33.28 2.080 0 4.074-0.826 5.544-2.296s2.296-3.464 2.296-5.544c0-2.080-0.826-4.074-2.296-5.544s-3.464-2.296-5.544-2.296c-10.72 0-19.68-7.84-19.68-17.44s8.8-17.44 19.68-17.44h196.16c10.88 0 19.68 7.84 19.68 17.44s-8.8 17.44-19.68 17.44c-2.078 0-4.072 0.826-5.544 2.296-1.47 1.47-2.296 3.464-2.296 5.544s0.826 4.074 2.296 5.544c1.472 1.47 3.466 2.296 5.544 2.296 19.52 0 35.36-14.88 35.36-33.28s-15.84-33.28-35.36-33.28zM605.282-21.92h-186.56c-17.28 0-31.52 14.080-31.52 31.52 0 17.28 14.080 31.52 31.52 31.52h186.56c17.28 0 31.52-14.080 31.52-31.52s-14.080-31.52-31.52-31.52zM418.722 25.28c-8.64 0-15.68-7.040-15.68-15.68s7.040-15.68 15.68-15.68h186.56c8.64 0 15.68 7.040 15.68 15.68s-7.040 15.68-15.68 15.68h-186.56zM527.522-64h-30.88c-29.44 0-53.44 22.4-53.44 49.92 0 2.080 0.826 4.074 2.296 5.544s3.464 2.296 5.544 2.296c2.078 0 4.072-0.826 5.542-2.296 1.472-1.47 2.298-3.464 2.298-5.544 0-18.88 16.96-34.080 37.76-34.080h30.88c20.8 0 37.76 15.36 37.76 34.080 0 2.080 0.826 4.074 2.296 5.544s3.464 2.296 5.544 2.296c2.078 0 4.072-0.826 5.542-2.296 1.472-1.47 2.298-3.464 2.298-5.544 0-27.52-24-49.92-53.44-49.92zM586.882 126.56c-1.030 0-2.050 0.204-3 0.598-0.952 0.394-1.816 0.97-2.544 1.698s-1.306 1.594-1.7 2.544c-0.394 0.952-0.596 1.97-0.596 3v67.68c0 12.16-7.84 21.92-17.44 21.92h-99.2c-9.6 0-17.44-9.92-17.44-21.92v-67.68c0-2.078-0.826-4.072-2.298-5.544-1.47-1.47-3.464-2.296-5.542-2.296-2.080 0-4.074 0.826-5.544 2.296-1.47 1.472-2.296 3.466-2.296 5.544v67.68c0 20.8 14.88 37.76 33.28 37.76h99.2c18.24 0 33.28-16.96 33.28-37.76v-67.68c-0.16-4.32-3.68-7.84-8.16-7.84zM549.122 648.32c-2.72 0-5.28 1.44-6.72 3.68s-1.6 5.12-0.48 7.68c4.276 8.814 11.302 15.998 20.018 20.47 8.714 4.474 18.648 5.994 28.302 4.33 4.32-0.8 7.2-4.8 6.4-9.12s-4.96-7.040-9.12-6.4c-12.48 2.24-25.12-4-30.88-15.36-1.28-3.2-4.16-5.28-7.52-5.28zM644.962 682.24c-1.6 0-3.2 0.48-4.64 1.6-1.694 1.234-2.832 3.088-3.162 5.156-0.328 2.070 0.174 4.186 1.402 5.884 3.52 4.8 5.44 10.72 5.44 16.8 0 16-12.96 29.12-29.12 29.12-6.4 0-12.8-2.080-17.6-6.080-3.36-2.72-8.32-2.080-11.040 1.28s-2.080 8.32 1.28 11.040c7.806 6.12 17.44 9.444 27.36 9.44 8.256-0.034 16.342-2.342 23.374-6.668 7.032-4.328 12.736-10.506 16.488-17.862 3.75-7.354 5.404-15.6 4.78-23.832s-3.504-16.134-8.322-22.838c-1.44-1.92-3.84-3.040-6.24-3.040zM690.88 574.24c-2.24 0-4.48 0.96-6.080 2.88-1.296 1.608-1.92 3.654-1.742 5.712 0.18 2.058 1.148 3.968 2.702 5.328 12.32 10.24 19.36 25.12 19.36 41.12 0 29.44-23.84 53.28-53.28 53.28-9.12 0-18.080-2.24-25.92-6.72-3.84-2.080-8.64-0.8-10.72 3.040s-0.8 8.64 3.040 10.72c10.532 5.816 22.398 8.786 34.428 8.62 12.032-0.166 23.81-3.464 34.178-9.568 10.368-6.106 18.966-14.806 24.948-25.244 5.982-10.44 9.142-22.258 9.166-34.288 0-20.64-9.12-40-24.96-53.28-1.6-0.96-3.36-1.6-5.12-1.6zM629.28 618.24c-22.72 0-43.2 15.84-48.16 38.72-3.84 17.44 2.24 35.68 15.52 47.52 3.2 2.88 8.32 2.56 11.2-0.64s2.56-8.16-0.64-11.040c-9.12-8-13.12-20.48-10.56-32.32 1.336-6.214 4.418-11.92 8.88-16.448s10.122-7.69 16.318-9.116c6.194-1.428 12.668-1.060 18.66 1.058 5.994 2.12 11.26 5.902 15.182 10.906 2.72 3.36 7.68 4 11.040 1.28s4-7.68 1.28-11.040c-7.040-8.96-17.12-15.36-28.32-17.76-3.36-0.64-6.88-1.12-10.4-1.12zM684 538.72c-5.28 0-10.72 1.12-15.84 3.36-10.24 4.32-18.4 12.48-23.040 22.88-1.122 2.644-2.030 5.372-2.72 8.16-0.466 2.036-0.106 4.176 1.004 5.946s2.878 3.028 4.916 3.494c2.036 0.466 4.176 0.106 5.946-1.004 1.77-1.112 3.026-2.88 3.494-4.916 0.48-1.76 0.96-3.52 1.76-5.28 3.040-6.72 8.16-12 14.72-14.72 6.24-2.72 13.12-2.72 19.040 0 1.28 0.64 2.4 1.28 3.52 1.92 3.68 2.4 8.48 1.6 10.88-2.080 2.4-3.52 1.6-8.48-2.080-10.88-1.92-1.28-4-2.4-6.080-3.36-4.8-2.24-10.24-3.52-15.52-3.52zM623.52 512.16h-0.32c-2.078 0.086-4.036 0.996-5.446 2.524-1.41 1.53-2.156 3.556-2.074 5.636 0.16 2.56 0.32 5.12 0.96 7.68 4.16 20 21.44 34.56 43.2 36.16 4.16 0.32 8.16-2.88 8.48-7.2s-2.88-8.16-7.2-8.48c-14.56-1.12-26.24-10.72-28.96-23.84-0.32-1.76-0.48-3.52-0.64-5.12-0.16-4.16-3.68-7.36-8-7.36zM562.080 464.48h-0.32c-2.078 0.086-4.036 0.996-5.446 2.524-1.41 1.53-2.156 3.556-2.074 5.636 0.16 2.56 0.32 5.12 0.96 7.68 3.2 16.16 15.68 29.28 32.48 34.24 4.16 1.28 8.48-1.12 9.76-5.28s-1.12-8.48-5.28-9.76c-11.2-3.2-19.36-11.84-21.44-22.4-0.48-1.92-0.48-3.52-0.64-5.12-0.32-4.32-3.84-7.52-8-7.52zM692.64 504.16c-3.84 0-7.040 2.72-7.68 6.56-0.8 4.32 2.24 8.32 6.4 9.12 9.596 1.622 18.304 6.596 24.574 14.040 6.272 7.442 9.696 16.868 9.666 26.6 0 15.36-8.32 29.28-21.92 36.48-1.74 1.052-3.010 2.734-3.544 4.696s-0.292 4.056 0.674 5.846c0.966 1.79 2.586 3.138 4.52 3.768 1.934 0.628 4.036 0.488 5.87-0.39 18.56-9.92 30.24-29.28 30.24-50.4 0-27.84-20-51.52-47.36-56.16-0.48 0-0.96-0.16-1.44-0.16zM666.24 450.24c-20.96 0-41.28 7.2-57.76 20.48-29.6 24-41.6 64.32-29.6 100.48 1.28 4.16 5.76 6.4 9.92 4.96s6.4-5.76 4.96-9.92c-9.92-30.080 0-63.52 24.48-83.36 14.72-11.84 32.96-17.92 51.84-16.96 4.8 0.16 8-3.2 8.32-7.52 0.088-2.096-0.652-4.142-2.058-5.698s-3.368-2.498-5.462-2.622c-1.44 0.16-3.040 0.16-4.64 0.16zM684.96 399.2c-1.716-0.018-3.39 0.538-4.754 1.582-1.362 1.044-2.336 2.516-2.766 4.178-1.12 4.16 1.28 8.48 5.44 9.76 12.29 3.494 23.108 10.896 30.816 21.088 7.708 10.19 11.886 22.614 11.904 35.392 0 16.32-6.88 32-18.88 43.040-3.2 2.88-3.36 8-0.48 11.2s8 3.36 11.2 0.48c15.2-14.080 24-33.92 24-54.72 0-33.28-22.4-62.72-54.24-71.52-0.8-0.32-1.44-0.48-2.24-0.48zM624.32 367.52c-10.26 0.218-20.294 3.044-29.16 8.21-8.868 5.166-16.274 12.502-21.522 21.32s-8.168 18.826-8.482 29.082c-0.316 10.258 1.986 20.426 6.684 29.548 2.080 3.84 6.72 5.28 10.56 3.36 3.84-2.080 5.28-6.72 3.36-10.56-3.322-6.382-5.056-13.47-5.052-20.664 0.004-7.196 1.746-14.282 5.076-20.66s8.15-11.856 14.052-15.972c5.9-4.114 12.708-6.744 19.844-7.664 1.92-0.16 3.84-0.32 5.6-0.32 4.8 0.32 8-3.2 8.16-7.52s-3.2-8-7.52-8.16h-1.6zM640.32 319.2c-8.8 0-17.28 1.92-25.28 5.6-0.95 0.422-1.806 1.026-2.52 1.782s-1.272 1.644-1.638 2.616c-0.366 0.974-0.536 2.008-0.5 3.046 0.036 1.040 0.28 2.060 0.714 3.004s1.054 1.792 1.818 2.494c0.766 0.702 1.664 1.246 2.64 1.6 0.978 0.352 2.016 0.508 3.054 0.456s2.054-0.31 2.992-0.758c5.92-2.72 12.16-4.16 18.72-4.16 10.478 0.018 20.616 3.718 28.64 10.456 8.024 6.736 13.424 16.082 15.254 26.398 1.832 10.316-0.024 20.948-5.24 30.034-5.216 9.088-13.462 16.050-23.294 19.672-0.98 0.338-1.882 0.872-2.65 1.568-0.77 0.694-1.39 1.54-1.822 2.482-0.434 0.942-0.672 1.962-0.702 2.998-0.028 1.036 0.154 2.068 0.534 3.032 1.44 4 5.92 6.24 10.080 4.64 23.68-8.64 39.68-31.36 39.68-56.8-0.11-15.976-6.528-31.264-17.854-42.532-11.328-11.266-26.648-17.602-42.626-17.628zM575.042 281.12c-28.16 0-51.040 22.88-51.040 51.040v407.52c0 6.038 1.43 11.992 4.174 17.37 2.744 5.38 6.724 10.032 11.612 13.578 4.886 3.546 10.546 5.884 16.51 6.822 5.966 0.938 12.068 0.451 17.808-1.423s10.956-5.080 15.22-9.357c4.262-4.277 7.452-9.503 9.306-15.249 1.856-5.746 2.324-11.85 1.366-17.814-0.958-5.962-3.314-11.612-6.876-16.488-1.282-1.556-3.11-2.566-5.11-2.822s-4.022 0.26-5.654 1.444c-1.632 1.184-2.752 2.946-3.13 4.926s0.012 4.030 1.094 5.732c2.434 3.346 3.896 7.298 4.226 11.422 0.332 4.124-0.484 8.258-2.354 11.948s-4.722 6.792-8.242 8.964c-3.522 2.173-7.574 3.33-11.71 3.346-12.32 0-22.4-10.080-22.4-22.4v-407.52c0-9.378 3.724-18.372 10.356-25.004 6.632-6.63 15.626-10.356 25.004-10.356s18.372 3.726 25.002 10.356c6.632 6.632 10.358 15.626 10.358 25.004 0 7.040-2.080 13.92-6.080 19.68-2.4 3.68-1.44 8.48 2.080 10.88s8.48 1.44 10.88-2.080c5.76-8.48 8.8-18.4 8.8-28.64 0-28-23.040-50.88-51.2-50.88zM379.042 682.24c-2.4 0-4.8 1.12-6.4 3.2-4.82 6.704-7.698 14.606-8.324 22.838-0.624 8.232 1.030 16.478 4.782 23.832 3.75 7.356 9.456 13.534 16.486 17.862 7.032 4.326 15.12 6.634 23.376 6.668 10.080 0 19.68-3.36 27.52-9.44 3.36-2.72 4-7.68 1.28-11.040s-7.68-4-11.040-1.28c-4.96 3.84-11.2 6.080-17.76 6.080-16 0-29.12-13.12-29.12-29.12 0-6.080 1.92-12.16 5.44-16.8 2.56-3.52 1.76-8.48-1.76-11.040-1.28-1.28-2.88-1.76-4.48-1.76zM333.122 574.24c-1.804 0.022-3.548 0.642-4.96 1.76-7.826 6.496-14.12 14.64-18.434 23.85s-6.544 19.26-6.526 29.43c0.024 12.032 3.182 23.848 9.164 34.288 5.982 10.438 14.58 19.14 24.948 25.244s22.148 9.402 34.178 9.568c12.030 0.166 23.896-2.804 34.43-8.62 3.84-2.080 5.12-6.88 3.040-10.72s-6.88-5.12-10.72-3.040c-8.11 4.52-17.262 6.844-26.546 6.738s-18.38-2.638-26.384-7.344c-8.004-4.706-14.64-11.422-19.248-19.482-4.608-8.062-7.030-17.188-7.022-26.472 0-16 7.040-30.88 19.36-41.12 3.36-2.72 3.84-7.68 0.96-11.040-0.774-0.91-1.728-1.652-2.802-2.174-1.074-0.524-2.244-0.818-3.438-0.866zM474.882 648.32c-3.36 0-6.24 2.080-7.36 5.12-5.92 11.36-18.4 17.6-30.88 15.36-4.16-0.8-8.32 2.080-9.12 6.4s2.080 8.32 6.4 9.12c19.68 3.52 39.52-6.56 48.32-24.8 1.12-2.4 0.96-5.28-0.48-7.68-1.6-2.080-4.16-3.52-6.88-3.52zM394.72 618.24c-7.488-0.004-14.878 1.692-21.614 4.962-6.734 3.272-12.638 8.030-17.266 13.918-2.72 3.36-2.080 8.32 1.28 11.040s8.32 2.080 11.040-1.28c4.8-6.080 11.68-10.4 19.2-12 8.8-1.92 17.76-0.32 25.28 4.48s12.64 12.32 14.56 21.12c2.56 11.84-1.44 24.32-10.56 32.32-3.2 2.88-3.52 7.84-0.64 11.040s7.84 3.52 11.2 0.64c13.44-11.84 19.36-30.080 15.52-47.52-2.72-12.8-10.4-23.84-21.44-31.040-8-4.96-17.12-7.68-26.56-7.68zM340 538.72c-5.44 0-10.72 1.12-15.68 3.36-2.080 0.96-4.16 2.080-6.080 3.36-3.52 2.4-4.48 7.36-2.080 10.88s7.36 4.48 10.88 2.080c1.12-0.8 2.24-1.44 3.52-1.92 5.92-2.72 12.64-2.56 19.040 0 6.56 2.72 11.68 8 14.72 14.72 0.8 1.76 1.28 3.52 1.76 5.28 0.96 4.16 5.12 6.88 9.44 5.92 2.022-0.496 3.77-1.758 4.874-3.52 1.106-1.762 1.48-3.886 1.046-5.92-0.64-2.72-1.44-5.44-2.72-8.16-4.64-10.4-12.8-18.56-23.040-22.88-4.96-2.080-10.4-3.2-15.68-3.2zM400.322 512.16c-4.16 0-7.68 3.36-7.84 7.52 0 1.76-0.16 3.36-0.64 4.96-2.72 13.28-14.4 22.88-28.96 24-1.034 0.072-2.044 0.35-2.968 0.818-0.926 0.468-1.748 1.116-2.418 1.906-0.672 0.79-1.178 1.706-1.488 2.694-0.312 0.988-0.424 2.030-0.326 3.062 0.32 4.32 4 7.52 8.48 7.2 21.76-1.6 39.040-16.16 43.2-36.32 0.48-2.56 0.8-4.96 0.96-7.68 0.16-4.32-3.2-8-7.52-8.16h-0.48zM461.922 464.48c-4.16 0-7.68 3.36-7.84 7.52 0 1.76-0.16 3.36-0.64 4.96-2.080 10.72-10.4 19.2-21.44 22.56-4.16 1.28-6.56 5.6-5.28 9.76s5.6 6.56 9.76 5.28c16.8-4.96 29.28-18.080 32.48-34.4 0.48-2.4 0.8-4.96 0.96-7.68 0.16-4.32-3.2-8-7.52-8.16-0.16 0.16-0.32 0.16-0.48 0.16zM331.362 504.16c-0.48 0-0.96 0-1.28 0.16-13.272 2.224-25.322 9.092-33.998 19.38-8.675 10.286-13.411 23.322-13.363 36.78 0 21.12 11.521 40.48 30.241 50.4 1.834 0.878 3.936 1.018 5.87 0.39 1.934-0.63 3.552-1.978 4.52-3.768 0.966-1.79 1.208-3.884 0.674-5.846-0.536-1.962-1.804-3.644-3.544-4.696-13.44-7.2-21.92-21.12-21.92-36.48 0-20.16 14.4-37.28 34.24-40.64 4.32-0.8 7.2-4.8 6.4-9.12-0.366-1.824-1.34-3.468-2.766-4.66-1.426-1.194-3.216-1.864-5.074-1.9zM357.76 450.24c-1.6 0-3.2 0-4.64 0.16-4.32 0.16-7.68 4-7.52 8.32s3.68 7.68 8.32 7.52c18.88-1.12 37.12 5.12 51.84 16.96 12.048 9.778 20.838 22.984 25.21 37.872 4.372 14.886 4.118 30.75-0.73 45.488-0.348 0.976-0.496 2.012-0.434 3.046 0.064 1.034 0.334 2.046 0.798 2.972 0.464 0.928 1.11 1.75 1.9 2.422 0.79 0.67 1.706 1.174 2.696 1.48 4.16 1.44 8.64-0.8 9.92-4.96 12-36.16 0-76.64-29.6-100.48-16.32-13.6-36.8-20.8-57.76-20.8zM339.040 399.2c-0.64 0-1.44 0.16-2.080 0.32-32 8.96-54.239 38.4-54.239 71.52 0 20.64 8.799 40.64 23.999 54.72 3.2 2.88 8.16 2.72 11.2-0.48 2.88-3.2 2.72-8.16-0.48-11.2-12-11.040-18.88-26.72-18.88-43.040 0-26.24 17.6-49.44 42.72-56.48 4.16-1.12 6.72-5.44 5.44-9.76-1.12-3.36-4.32-5.6-7.68-5.6zM399.68 367.52h-1.76c-1.994 0.162-3.852 1.078-5.194 2.564-1.342 1.484-2.066 3.426-2.024 5.426 0.040 2.002 0.842 3.912 2.244 5.34 1.402 1.43 3.294 2.27 5.294 2.35h1.44c7.546 0.226 14.912 2.358 21.41 6.2s11.916 9.266 15.752 15.77c3.834 6.502 5.958 13.87 6.174 21.416 0.218 7.544-1.48 15.022-4.936 21.734-0.484 0.912-0.782 1.91-0.876 2.94-0.094 1.028 0.020 2.064 0.332 3.048 0.314 0.984 0.82 1.896 1.49 2.68 0.672 0.786 1.492 1.428 2.414 1.892 3.84 2.080 8.64 0.48 10.56-3.36 3.2-6.24 5.44-12.96 6.24-20 2.042-15.888-2.302-31.938-12.082-44.628-9.778-12.688-24.192-20.978-40.078-23.052-2.080-0.16-4.16-0.32-6.4-0.32zM383.682 319.2c-33.28 0-60.32 27.040-60.32 60.32 0 25.28 15.84 48.16 39.52 56.8 4.16 1.44 8.64-0.64 10.080-4.64 1.44-4.16-0.64-8.64-4.64-10.080-17.44-6.4-29.28-23.2-29.28-41.92 0-24.64 20-44.64 44.64-44.64 6.4 0 12.8 1.44 18.72 4.16 4 1.76 8.64 0.16 10.4-3.84 1.92-4 0.16-8.64-3.84-10.4-8-3.84-16.48-5.76-25.28-5.76zM448.96 281.12c-9.266 0.012-18.356 2.546-26.292 7.328-7.938 4.784-14.424 11.636-18.764 19.822-4.34 8.188-6.37 17.402-5.874 26.656s3.5 18.198 8.69 25.874c2.4 3.52 7.36 4.48 10.88 2.080 3.68-2.4 4.48-7.36 2.080-10.88-4-5.76-6.080-12.64-6.080-19.68 0-9.378 3.726-18.372 10.358-25.004 6.63-6.63 15.624-10.356 25.002-10.356s18.372 3.726 25.004 10.356c6.63 6.632 10.356 15.626 10.356 25.004v407.36c0 12.32-10.080 22.4-22.4 22.4-4.136-0.016-8.188-1.173-11.71-3.346-3.52-2.172-6.372-5.274-8.242-8.964s-2.686-7.826-2.354-11.948c0.33-4.124 1.792-8.076 4.226-11.422 1.082-1.702 1.472-3.752 1.094-5.732-0.378-1.982-1.498-3.742-3.13-4.926s-3.656-1.7-5.656-1.444c-2 0.256-3.826 1.266-5.108 2.822-3.562 4.876-5.918 10.526-6.876 16.488s-0.49 12.068 1.366 17.814c1.854 5.746 5.044 10.972 9.306 15.249 4.264 4.277 9.478 7.483 15.22 9.357 5.74 1.874 11.842 2.361 17.808 1.423 5.964-0.938 11.622-3.276 16.51-6.822s8.868-8.199 11.61-13.578c2.744-5.378 4.176-11.332 4.176-17.37v-407.52c-0.072-13.542-5.494-26.506-15.084-36.068-9.592-9.56-22.574-14.942-36.116-14.972zM512 896.48c-2.078 0-4.074 0.826-5.544 2.296s-2.296 3.465-2.296 5.544v47.84c0 2.079 0.826 4.073 2.296 5.544s3.466 2.296 5.544 2.296c2.080 0 4.074-0.826 5.544-2.296s2.296-3.464 2.296-5.544v-47.68c0-4.48-3.52-8-7.84-8zM695.040 847.52c-1.28 0-2.72 0.32-4 1.12-0.904 0.504-1.696 1.185-2.332 2.001s-1.102 1.751-1.37 2.751c-0.27 0.999-0.334 2.042-0.194 3.067 0.142 1.025 0.488 2.011 1.016 2.901l23.84 41.28c2.24 3.84 7.040 4.96 10.72 2.88 3.84-2.24 5.12-7.040 2.88-10.72l-23.84-41.28c-0.63-1.231-1.596-2.259-2.784-2.966s-2.552-1.066-3.936-1.034zM828.96 713.44c-2.72 0-5.44 1.44-6.88 4-0.538 0.886-0.89 1.874-1.036 2.9-0.146 1.028-0.084 2.074 0.186 3.076s0.738 1.938 1.38 2.754c0.64 0.814 1.44 1.492 2.35 1.99l41.28 23.84c0.888 0.538 1.874 0.89 2.9 1.036 1.028 0.146 2.074 0.084 3.076-0.186 1.002-0.268 1.938-0.738 2.754-1.38 0.816-0.64 1.492-1.44 1.99-2.35 2.24-3.84 0.96-8.64-2.88-10.72l-41.28-23.84c-1.12-0.64-2.56-1.12-3.84-1.12zM925.76 530.56h-47.68c-2.078 0-4.074 0.826-5.544 2.296s-2.296 3.464-2.296 5.544c0 2.080 0.826 4.074 2.296 5.544s3.466 2.296 5.544 2.296h47.68c2.080 0 4.074-0.826 5.544-2.296s2.296-3.464 2.296-5.544c0-2.080-0.826-4.074-2.296-5.544s-3.464-2.296-5.544-2.296zM328.96 847.52c-2.72 0-5.44 1.44-6.88 4l-23.68 41.28c-0.538 0.887-0.89 1.874-1.036 2.901s-0.084 2.073 0.186 3.075c0.27 1.002 0.738 1.939 1.38 2.754 0.64 0.816 1.44 1.493 2.35 1.991 3.68 2.24 8.64 0.96 10.72-2.88l23.84-41.28c2.24-3.84 0.96-8.64-2.88-10.72-1.28-0.8-2.56-1.12-4-1.12zM195.040 713.44c-1.28 0-2.72 0.32-4 1.12l-41.28 23.84c-0.903 0.504-1.697 1.184-2.333 2.002-0.636 0.816-1.102 1.75-1.371 2.75s-0.334 2.042-0.193 3.068c0.141 1.024 0.487 2.010 1.016 2.9 2.24 3.84 7.040 4.96 10.72 2.88l41.28-23.84c3.84-2.24 5.12-7.040 2.88-10.72-1.28-2.56-4-4-6.72-4zM146.080 530.56h-47.84c-2.079 0-4.073 0.826-5.544 2.296s-2.296 3.464-2.296 5.544c0 2.080 0.826 4.074 2.296 5.544s3.464 2.296 5.544 2.296h47.68c4.32 0 7.84-3.52 7.84-7.84 0.16-4.32-3.36-7.84-7.68-7.84zM468 224c-1.78-0.010-3.51 0.588-4.906 1.692-1.396 1.106-2.374 2.654-2.774 4.388l-13.44 57.28c-0.96 4.16 1.6 8.48 5.92 9.44s8.48-1.6 9.44-5.92l13.44-57.28c0.96-4.16-1.6-8.48-5.92-9.44-0.64-0.16-1.28-0.16-1.76-0.16zM556 224c-0.64 0-1.28 0-1.76 0.16-2.020 0.494-3.768 1.758-4.872 3.52-1.106 1.762-1.482 3.886-1.048 5.92l13.44 57.28c0.96 4.16 5.12 6.88 9.44 5.92 2.022-0.496 3.77-1.758 4.874-3.52 1.106-1.762 1.48-3.886 1.046-5.92l-13.44-57.28c-0.8-3.68-4-6.080-7.68-6.080z" />
<glyph unicode="&#xe90c;" glyph-name="call" d="M34.133 677.155c0-304.146 403.334-707.021 707.127-707.021 66.492 0 128.608 25.081 174.394 70.861l39.82 45.78c46.182 46.182 46.182 124.211-1.993 172.38-1.195 1.195-97.15 74.841-97.15 74.841-47.78 45.383-123.030 45.383-170.411 0l-58.131-46.578c-127.411 54.142-217.793 144.908-275.924 276.678l46.186 58.122c45.789 47.374 45.789 123.012 0 170.386 0 0-73.659 95.942-74.854 97.136-48.177 48.17-126.216 48.17-174.393 0l-41.807-36.227c-47.779-47.374-72.863-109.477-72.863-175.959v-0.398z" />
<glyph unicode="&#xe90d;" glyph-name="clock" d="M928 448c0-229.75-186.25-416-416-416s-416 186.25-416 416v0c0 229.75 186.25 416 416 416s416-186.25 416-416v0zM0 448c0-282.77 229.23-512 512-512s512 229.23 512 512v0c0 282.77-229.23 512-512 512s-512-229.23-512-512v0zM464 720v-272c0-16 8-31 21.4-40l192-128c22-14.8 51.8-8.8 66.6 13.4s8.8 51.8-13.4 66.6l-170.6 113.6v246.4c0 26.6-21.4 48-48 48s-48-21.4-48-48z" />
<glyph unicode="&#xe90e;" glyph-name="close" d="M955.788 891.734c-13.872 13.865-32.679 21.653-52.285 21.653-19.613 0-38.42-7.789-52.292-21.653l-339.157-339.16-339.16 339.16c-13.868 13.865-32.676 21.653-52.286 21.653s-38.418-7.789-52.287-21.653c-13.864-13.869-21.653-32.676-21.653-52.286s7.789-38.418 21.653-52.287l339.16-339.16-339.16-339.163c-13.864-13.865-21.653-32.672-21.653-52.285 0-19.606 7.789-38.414 21.653-52.285 13.869-13.865 32.676-21.654 52.287-21.654s38.418 7.789 52.286 21.654l339.16 339.161 339.157-339.161c13.872-13.865 32.679-21.654 52.292-21.654 19.606 0 38.414 7.789 52.285 21.654 13.865 13.872 21.654 32.679 21.654 52.285 0 19.613-7.789 38.42-21.654 52.285l-339.162 339.163 339.162 339.16c13.865 13.869 21.654 32.677 21.654 52.287s-7.789 38.418-21.654 52.286z" />
<glyph unicode="&#xe90f;" glyph-name="coding" d="M1013.526 474.341l-236.801 250.881c-14.554 15.436-38.848 16.14-54.284 1.574-15.412-14.554-16.128-38.86-1.562-54.284l211.931-224.513-211.931-224.539c-14.566-15.424-13.85-39.718 1.562-54.284 6.846-6.483 16.115-10.47 26.314-10.47 0.015 0 0.030 0 0.044 0h-0.002c0.015 0 0.032 0 0.050 0 10.975 0 20.874 4.611 27.864 12.002l236.818 250.911c13.962 14.808 13.962 37.926-0.002 52.722zM303.134 223.472l-211.917 224.527 211.917 224.525c14.554 15.424 13.85 39.732-1.574 54.284-15.412 14.554-39.732 13.85-54.284-1.574l-236.801-250.881c-13.964-14.796-13.964-37.926 0-52.724l236.813-250.893c7.552-8 17.728-12.032 27.93-12.032 9.446 0 18.932 3.482 26.342 10.484 15.438 14.554 16.128 38.86 1.574 54.284zM574.125 854.605c-20.954 3.174-40.564-11.212-43.764-32.166l-112.641-737.284c-3.2-20.966 11.2-40.564 32.166-43.764 1.972-0.294 3.916-0.436 5.85-0.436 18.65 0 35.008 13.606 37.914 32.602l112.641 737.284c3.2 20.968-11.2 40.564-32.166 43.764z" />
<glyph unicode="&#xe910;" glyph-name="comments" d="M141.12 363.040c15.68 29.28 10.88 65.28-12 89.28-34.080 35.84-52.32 78.88-52.32 123.68 0 101.6 102.080 204.8 256 204.8s256-103.2 256-204.8-102.080-204.8-256-204.8c-20.96 0-41.28 2.080-60.48 5.76-16.64 3.2-33.92 0.96-49.12-6.72-6.56-3.36-13.28-6.56-20.16-9.6-25.6-11.52-52.64-21.6-79.84-28.8 4.48 7.36 8.64 14.56 12.64 21.76 1.76 3.040 3.52 6.24 5.12 9.44zM0 576c0-66.88 27.52-128.16 73.44-176.48-1.44-2.72-3.040-5.6-4.48-8.16-16.48-29.44-35.68-58.4-58.56-83.36-10.56-11.2-13.28-27.52-7.36-41.44 6.24-14.24 20-23.36 35.36-23.36 68.8 0 138.4 21.28 196.32 47.52 7.68 3.52 15.36 7.2 22.72 10.88 24.16-4.8 49.44-7.2 75.36-7.2 183.84 0 332.8 126.080 332.8 281.6s-148.96 281.6-332.8 281.6-332.8-126.080-332.8-281.6zM691.2 89.6c25.92 0 51.040 2.56 75.36 7.2 7.36-3.68 15.040-7.36 22.72-10.88 57.92-26.24 127.52-47.52 196.32-47.52 15.36 0 29.12 9.12 35.2 23.2s3.2 30.4-7.36 41.44c-22.72 24.96-41.92 53.92-58.56 83.36-1.44 2.72-3.040 5.44-4.48 8.16 46.080 48.48 73.6 109.76 73.6 176.64 0 151.040-140.64 274.4-317.12 281.28 6.56-24.32 9.92-49.92 9.92-76.48v-0.96c139.52-10.72 230.4-108 230.4-203.84 0-44.8-18.24-87.84-52.32-123.52-22.88-24-27.68-60.16-12-89.28 1.76-3.2 3.52-6.4 5.12-9.44 4-7.2 8.32-14.4 12.64-21.76-27.2 7.2-54.24 17.12-79.84 28.8-6.88 3.040-13.6 6.24-20.16 9.6-15.2 7.68-32.48 9.92-49.12 6.72-19.36-3.84-39.52-5.76-60.48-5.76-98.72 0-176 42.4-218.88 99.68-25.6-8.64-52.48-15.040-80-18.88 54.24-93.44 167.84-157.76 299.040-157.76z" />
<glyph unicode="&#xe911;" glyph-name="data-analytics" d="M632.46 510.72c-61.66-46.64-73.88-134.74-27.24-196.42 27.54-36.4 69.52-55.58 112-55.58 29.46 0 59.16 9.24 84.42 28.34 61.66 46.64 73.88 134.74 27.24 196.42-46.64 61.66-134.74 73.88-196.42 27.24zM787.16 306.2c-51.12-38.66-124.14-28.52-162.8 22.58s-28.52 124.14 22.58 162.8 124.14 28.52 162.8-22.58 28.52-124.14-22.58-162.8zM983.46 133.26l-87.1 115.16c-5 6.6-13.72 8.7-21.040 5.64l-16.86 22.3c56.64 65.34 62.020 163.76 7.82 235.42-7.627 10.031-15.802 18.885-24.742 26.903l-0.178 0.157v269.26c0 25.38-20.66 46.040-46.040 46.040h-719.28c-25.38-0.020-46.040-20.66-46.040-46.040v-550.28c0-25.38 20.66-46.040 46.040-46.040h264.14l-46.98-76.12h-38.14c-6.62 0-12-5.38-12-12v-69.78c0-6.62 5.38-12 12-12h361.24c6.62 0 12 5.38 12 12v69.78c0 6.62-5.38 12-12 12h-38.16l-47.24 76.12 188.24 0.1c26.3 0.26 52.7 6.020 77.32 17.56l16.86-22.3c-1.911-2.382-3.235-5.314-3.708-8.523l-0.012-0.097c-0.113-0.749-0.177-1.612-0.177-2.491 0-4.029 1.352-7.742 3.628-10.711l-0.031 0.042 87.1-115.16c10.26-13.56 25.9-20.7 41.72-20.7 0.014 0 0.031 0 0.048 0 11.859 0 22.79 3.97 31.538 10.652l-0.126-0.092c22.98 17.4 27.54 50.22 10.16 73.2zM815.44 268.8c-71.74-54.26-174.24-40.040-228.5 31.7-26.28 34.74-37.46 77.66-31.48 120.82s28.42 81.4 63.18 107.68c28.62 21.66 62.78 33.060 98.060 33.060 7.54 0 15.14-0.52 22.76-1.58 43.16-5.98 81.4-28.42 107.68-63.18 54.26-71.74 40.040-174.24-31.7-228.5zM76.040 830.12h719.3c12.14 0 22.040-9.88 22.040-22.040v-251.18c-22.32 14.18-47.62 23.58-74.6 27.32-49.5 6.86-98.72-5.96-138.58-36.1s-65.6-74.020-72.46-123.52c-1.152-7.81-1.81-16.825-1.81-25.994 0-11.909 1.11-23.558 3.232-34.85l-0.182 1.164h-478.98v443.18c0 12.14 9.88 22.020 22.040 22.020zM54 257.8v83.12h485.040c6.38-19.52 16.020-38.060 28.76-54.92 16.040-21.2 35.74-38.020 57.56-50.24h-549.32c-12.16 0.020-22.040 9.9-22.040 22.040zM604.3 65.88h-337.24v45.78h337.24zM549.9 135.66h-228.5l46.98 76.12h134.28zM829.92 249.66c4 3.020 7.82 6.18 11.5 9.44l14.42-19.060-23.72-17.94-14.42 19.080c4.82 3.070 8.804 5.863 12.667 8.807l-0.447-0.327zM969.72 97.88c-1.040-7.5-4.9-14.12-10.9-18.66-5.98-4.52-13.42-6.44-20.92-5.4s-14.12 4.9-18.66 10.88l-83.34 110.18 45.040 34.080 83.34-110.18c4.56-5.98 6.48-13.4 5.44-20.9zM99.72 401.020h59.28c6.62 0 12 5.38 12 12v183.62c0 6.62-5.38 12-12 12h-59.28c-6.62 0-12-5.38-12-12v-183.62c0-6.64 5.36-12 12-12zM111.72 584.64h35.28v-159.62h-35.28zM265.38 666.080h-59.28c-6.62 0-12-5.38-12-12v-241.060c0-6.62 5.38-12 12-12h59.28c6.62 0 12 5.38 12 12v241.060c0 6.62-5.38 12-12 12zM253.38 425.020h-35.28v217.060h35.28zM371.76 608.64h-59.28c-6.62 0-12-5.38-12-12v-183.62c0-6.62 5.38-12 12-12h59.28c6.62 0 12 5.38 12 12v183.62c0 6.62-5.36 12-12 12zM359.76 425.020h-35.28v159.62h35.28zM418.88 693.22c-6.62 0-12-5.38-12-12v-268.2c0-6.62 5.38-12 12-12h59.28c6.62 0 12 5.38 12 12v268.2c0 6.62-5.38 12-12 12zM466.16 425.020h-35.28v244.2h35.28zM129.96 631.18c18.8 0 34.1 15.3 34.1 34.1 0 2.22-0.22 4.4-0.64 6.5l52.72 32.42c5.78-4.48 13-7.18 20.86-7.18 7.92 0 15.18 2.74 20.98 7.26l52.62-32.060c-0.4-2.060-0.62-4.18-0.62-6.36 0-18.8 15.3-34.1 34.1-34.1s34.1 15.3 34.1 34.1c0 5.84-1.48 11.34-4.080 16.14l60.18 48.58c4.933-2.978 10.891-4.74 17.26-4.74v0c18.8 0 34.1 15.3 34.1 34.1s-15.3 34.1-34.1 34.1-34.1-15.3-34.1-34.1c0-3.74 0.62-7.32 1.74-10.7l-63.58-51.32c-3.6 1.3-7.48 2.040-11.54 2.040-7.92 0-15.18-2.74-20.98-7.26l-52.62 32.060c0.4 2.060 0.62 4.18 0.62 6.36 0 18.8-15.3 34.1-34.1 34.1s-34.1-15.3-34.1-34.1c0-2.22 0.22-4.4 0.64-6.5l-52.7-32.42c-5.78 4.48-13 7.18-20.86 7.18-18.8 0-34.1-15.3-34.1-34.1s15.3-34.1 34.1-34.1zM451.56 770.040c5.58 0 10.1-4.54 10.1-10.1s-4.54-10.1-10.1-10.1-10.1 4.54-10.1 10.1 4.54 10.1 10.1 10.1zM344.080 675.98c5.58 0 10.1-4.54 10.1-10.1 0-5.58-4.54-10.1-10.1-10.1s-10.1 4.54-10.1 10.1 4.54 10.1 10.1 10.1zM237 741.24c5.58 0 10.1-4.54 10.1-10.1 0-5.58-4.54-10.1-10.1-10.1s-10.1 4.54-10.1 10.1 4.54 10.1 10.1 10.1zM129.96 675.38c5.58 0 10.1-4.54 10.1-10.1s-4.54-10.1-10.1-10.1-10.1 4.54-10.1 10.1 4.54 10.1 10.1 10.1zM478.36 288.36c0-6.62-5.38-12-12-12h-61.36c-6.62 0-12 5.38-12 12s5.38 12 12 12h61.36c6.62 0 12-5.38 12-12z" />
<glyph unicode="&#xe912;" glyph-name="design-page" d="M640 512h80c8.837 0 16 7.163 16 16s-7.163 16-16 16v0h-80c-8.837 0-16-7.163-16-16s7.163-16 16-16v0zM976 544c-8.837 0-16-7.163-16-16v0-528h-816c-44.183 0-80 35.817-80 80s35.817 80 80 80c44.183 0 80-35.817 80-80v0c0-8.837 7.163-16 16-16s16 7.163 16 16v0 432h48c8.837 0 16 7.163 16 16s-7.163 16-16 16v0h-48v48c0 61.856-50.144 112-112 112s-112-50.144-112-112v0-512c0.073-61.827 50.174-111.927 111.993-112h832.007c8.837 0 16 7.163 16 16v0 544c0 8.837-7.163 16-16 16v0zM64 592c0 44.183 35.817 80 80 80s80-35.817 80-80v0-433.6c-20.328 20.788-48.659 33.678-80 33.678s-59.672-12.89-79.98-33.657l-0.020-0.021zM769.136 346.048l64-160c2.419-5.956 8.16-10.079 14.864-10.079s12.445 4.123 14.825 9.972l0.039 0.107 64 160c0.614 1.584 0.981 3.417 1.008 5.333v0.011c0 0.208 0.128 0.384 0.128 0.608v272c0 8.837-7.163 16-16 16s-16-7.163-16-16v0-256h-32v368h32v-48c0-8.837 7.163-16 16-16s16 7.163 16 16v0 160c0 44.183-35.817 80-80 80s-80-35.817-80-80v0-496c0-0.224 0.112-0.4 0.128-0.624 0.029-1.921 0.396-3.748 1.045-5.436l-0.037 0.108zM833.232 272h29.536l-14.768-36.928zM875.568 304h-55.136l-12.8 32h80.736zM832 368h-32v368h32zM800 768v32h96v-32zM800 848c0 26.51 21.49 48 48 48s48-21.49 48-48v0-16h-96zM384 612.8v-7.696c-18.799-6.689-32.015-24.329-32.015-45.056s13.217-38.367 31.682-44.952l0.333-0.104v-2.992c0.064-42.333 27.487-78.243 65.53-91.003l0.678-0.197c-16.609-16.69-37.62-28.986-61.144-35.001l-0.92-0.199-24.4-6.112c-34.702-8.788-59.97-39.739-59.97-76.592 0-43.573 35.323-78.896 78.896-78.896 0.074 0 0.147 0 0.221 0h33.109c8.837 0 16 7.163 16 16s-7.163 16-16 16v0h-33.12c-25.881 0.026-46.851 21.012-46.851 46.896 0 21.849 14.942 40.209 35.166 45.417l0.325 0.071 24.4 6.096c38.085 9.768 70.011 31.774 92.153 61.499l0.311 0.437c49.253 4.485 87.55 45.552 87.616 95.577v2.951c18.799 6.689 32.015 24.329 32.015 45.056s-13.217 38.367-31.682 44.952l-0.333 0.104v7.744c29.513 26.407 48.001 64.61 48.001 107.132 0 26.996-7.452 52.251-20.411 73.822l0.362-0.649c-2.836 4.743-7.945 7.87-13.784 7.87-8.84 0-16.006-7.166-16.006-16.006 0-3.001 0.826-5.809 2.262-8.209l-0.040 0.073c9.81-16.271 15.614-35.917 15.614-56.918 0-35.211-16.314-66.611-41.795-87.056l-0.219-0.17c-3.662-2.957-5.984-7.446-5.984-12.477 0-0.001 0-0.002 0-0.003v0-12.208h-14.128l14.032 126.24c0.062 0.529 0.098 1.143 0.098 1.764 0 8.837-7.163 16-16 16-1.809 0-3.548-0.3-5.17-0.854l0.113 0.033-42.944-14.32-42.944 14.32c-1.509 0.52-3.248 0.82-5.058 0.82-8.837 0-16-7.163-16-16 0-0.622 0.035-1.235 0.104-1.838l-0.007 0.074 14.032-126.24h-14.128v12.16c0 0.001 0 0.002 0 0.003 0 5.031-2.322 9.52-5.954 12.453l-0.030 0.024c-25.787 20.676-42.157 52.177-42.157 87.501 0 61.794 50.094 111.888 111.888 111.888 21.043 0 40.73-5.809 57.543-15.911l-0.506 0.282c2.327-1.396 5.135-2.222 8.136-2.222 8.84 0 16.006 7.166 16.006 16.006 0 5.839-3.127 10.948-7.797 13.744l-0.073 0.040c-20.891 12.502-46.086 19.895-73.007 19.895-79.476 0-143.904-64.428-143.904-143.904 0-42.501 18.425-80.699 47.723-107.042l0.132-0.117zM480 448c-35.346 0-64 28.654-64 64v0h128c0-35.346-28.654-64-64-64v0zM450.672 712.912l24.272-8.096c1.509-0.52 3.247-0.82 5.056-0.82s3.547 0.3 5.169 0.853l-0.113-0.033 24.272 8.096-11.648-104.912h-35.28zM448 576h112c8.837 0 16-7.163 16-16s-7.163-16-16-16v0h-160c-8.837 0-16 7.163-16 16s7.163 16 16 16v0zM304 720c0-8.837-7.163-16-16-16s-16 7.163-16 16c0 8.837 7.163 16 16 16s16-7.163 16-16zM688 720c0-8.837-7.163-16-16-16s-16 7.163-16 16c0 8.837 7.163 16 16 16s16-7.163 16-16zM496 912c0-8.837-7.163-16-16-16s-16 7.163-16 16c0 8.837 7.163 16 16 16s16-7.163 16-16zM305.728 802.144c2.295-1.348 5.055-2.144 8-2.144 8.837 0 16 7.163 16 16s-7.163 16-16 16c-5.891 0-11.039-3.184-13.816-7.925l-0.041-0.076c-1.348-2.295-2.144-5.054-2.144-8 0-5.891 3.184-11.038 7.924-13.815l0.075-0.041zM638.272 610.144c2.295-1.348 5.055-2.144 8-2.144 8.837 0 16 7.163 16 16s-7.163 16-16 16c-5.891 0-11.039-3.184-13.816-7.925l-0.041-0.076c-1.348-2.295-2.144-5.054-2.144-8 0-5.891 3.184-11.038 7.924-13.815l0.075-0.041zM591.456 890.405c2.287-8.535-2.778-17.309-11.314-19.596s-17.309 2.778-19.596 11.314c-2.287 8.535 2.778 17.309 11.314 19.596s17.309-2.778 19.596-11.314zM654.272 802.144c4.816 2.818 8 7.965 8 13.856 0 8.837-7.163 16-16 16s-16-7.163-16-16c0-2.946 0.796-5.706 2.185-8.076l-0.041 0.075c2.818-4.816 7.965-8 13.856-8 2.945 0 5.705 0.796 8.075 2.184l-0.076-0.041zM327.584 632c-2.818 4.816-7.965 8-13.856 8-8.837 0-16-7.163-16-16s7.163-16 16-16c2.946 0 5.706 0.796 8.076 2.185l-0.075-0.041c4.816 2.818 8 7.965 8 13.856 0 2.945-0.796 5.705-2.184 8.075l0.041-0.076zM392 872.416c4.816 2.818 8 7.965 8 13.856 0 8.837-7.163 16-16 16s-16-7.163-16-16c0-2.946 0.796-5.706 2.185-8.076l-0.041 0.075c2.818-4.816 7.965-8 13.856-8 2.945 0 5.705 0.796 8.075 2.184l-0.076-0.041zM560 96h64c8.837 0 16 7.163 16 16v0 26.896c6.008 2.855 11.116 5.845 15.941 9.212l-0.357-0.236 23.264-13.44c2.295-1.348 5.054-2.144 8-2.144 5.891 0 11.038 3.184 13.815 7.924l0.041 0.075 32 55.424c1.348 2.295 2.144 5.054 2.144 8 0 5.891-3.184 11.038-7.924 13.815l-0.075 0.041-23.232 13.424c0.243 2.698 0.381 5.837 0.381 9.008s-0.139 6.309-0.41 9.41l0.028-0.402 23.232 13.424c4.816 2.818 8 7.965 8 13.856 0 2.945-0.796 5.705-2.184 8.075l0.041-0.076-32 55.424c-2.818 4.816-7.965 8-13.856 8-2.945 0-5.705-0.796-8.075-2.184l0.076 0.041-23.264-13.44c-4.468 3.131-9.576 6.121-14.924 8.69l-0.66 0.286v26.896c0 8.837-7.163 16-16 16v0h-64c-8.837 0-16-7.163-16-16v0-26.896c-6.008-2.855-11.116-5.845-15.941-9.212l0.357 0.236-23.264 13.44c-2.295 1.348-5.054 2.144-8 2.144-5.891 0-11.038-3.184-13.815-7.924l-0.041-0.075-32-55.424c-1.348-2.295-2.144-5.054-2.144-8 0-5.891 3.184-11.038 7.924-13.815l0.075-0.041 23.232-13.424c-0.243-2.698-0.381-5.837-0.381-9.008s0.139-6.309 0.41-9.41l-0.028 0.402-23.232-13.424c-4.868-2.806-8.092-7.981-8.092-13.909 0-8.837 7.163-16 16-16 2.983 0 5.775 0.816 8.166 2.238l-0.074-0.041 32.448 18.784c4.82 2.817 8.007 7.967 8.007 13.861 0 1.022-0.096 2.022-0.279 2.991l0.016-0.1c-0.895 4.392-1.408 9.44-1.408 14.608s0.513 10.216 1.49 15.096l-0.082-0.488c0.168 0.869 0.263 1.869 0.263 2.891 0 5.894-3.187 11.044-7.932 13.82l-0.076 0.041-18.656 10.784 16 27.712 18.656-10.784c2.295-1.348 5.055-2.144 8.001-2.144 3.98 0 7.621 1.453 10.42 3.858l-0.021-0.018c7.155 6.138 15.549 11.085 24.723 14.4l0.557 0.176c6.286 2.244 10.706 8.14 10.72 15.070v21.586h32v-21.584c0.004-6.917 4.397-12.807 10.545-15.037l0.111-0.035c9.731-3.491 18.125-8.438 25.387-14.666l-0.107 0.090c2.778-2.387 6.419-3.84 10.399-3.84 2.946 0 5.706 0.796 8.077 2.185l-0.075-0.041 18.656 10.784 16-27.712-18.592-10.784c-4.82-2.817-8.007-7.967-8.007-13.861 0-1.022 0.096-2.022 0.279-2.991l-0.016 0.1c0.895-4.392 1.408-9.44 1.408-14.608s-0.513-10.216-1.49-15.096l0.082 0.488c-0.168-0.869-0.263-1.869-0.263-2.891 0-5.894 3.187-11.044 7.932-13.82l0.076-0.041 18.656-10.784-16-27.712-18.656 10.784c-2.295 1.348-5.055 2.144-8.001 2.144-3.98 0-7.621-1.453-10.42-3.858l0.021 0.018c-7.155-6.138-15.549-11.085-24.723-14.4l-0.557-0.176c-6.259-2.265-10.652-8.155-10.656-15.071v-21.585h-32.064v21.584c-0.004 6.917-4.397 12.807-10.545 15.037l-0.111 0.035c-9.731 3.491-18.125 8.438-25.387 14.666l0.107-0.090c-2.778 2.387-6.419 3.84-10.399 3.84-2.946 0-5.706-0.796-8.077-2.185l0.075 0.041-32.512-18.784c-4.868-2.806-8.092-7.981-8.092-13.909 0-8.837 7.163-16 16-16 2.983 0 5.775 0.816 8.166 2.238l-0.074-0.041 23.264 13.44c4.468-3.131 9.576-6.121 14.924-8.69l0.66-0.286v-26.896c0-8.837 7.163-16 16-16v0zM640 240c0 26.51-21.49 48-48 48s-48-21.49-48-48c0-26.51 21.49-48 48-48v0c26.51 0 48 21.49 48 48v0zM576 240c0 8.837 7.163 16 16 16s16-7.163 16-16c0-8.837-7.163-16-16-16v0c-8.837 0-16 7.163-16 16v0zM608 32h192c35.346 0 64 28.654 64 64v0 32c0 8.837-7.163 16-16 16s-16-7.163-16-16v0-32c0-17.673-14.327-32-32-32v0h-192c-8.837 0-16-7.163-16-16s7.163-16 16-16v0zM320 96c0-26.51 21.49-48 48-48s48 21.49 48 48c0 26.51-21.49 48-48 48v0c-26.51 0-48-21.49-48-48v0zM384 96c0-8.837-7.163-16-16-16s-16 7.163-16 16c0 8.837 7.163 16 16 16v0c8.837 0 16-7.163 16-16v0z" />
<glyph unicode="&#xe913;" glyph-name="design-tool-2" d="M1009.6 742.4h-1.6c0 59.2-46.4 105.6-105.6 105.6h-780.8c-59.2 0-105.6-46.4-105.6-105.6v-492.8c0-59.2 46.4-105.6 105.6-105.6h283.2l-24-112h-108.8c-9.6 0-16-6.4-16-16v-64c0-9.6 6.4-16 16-16h480c9.6 0 16 6.4 16 16v64c0 9.6-6.4 16-16 16h-107.2l-24 112h283.2c57.6 0 105.6 46.4 105.6 105.6v492.8zM736 0v-32h-448v32h448zM412.8 32l24 112h150.4l24-112h-198.4zM976 249.6c0-40-33.6-73.6-73.6-73.6h-780.8c-40 0-73.6 33.6-73.6 73.6v54.4h928v-54.4zM976 336h-928v406.4c0 40 33.6 73.6 73.6 73.6h780.8c40 0 73.6-33.6 73.6-73.6v-406.4zM512 208c17.674 0 32 14.326 32 32s-14.326 32-32 32c-17.674 0-32-14.326-32-32s14.326-32 32-32zM752 752h32v-32h-32v32zM816 752h32v-32h-32v32zM880 752h32v-32h-32v32zM816 688h32v-32h-32v32zM880 688h32v-32h-32v32zM592 432h320v-32h-320v32zM640 496h272v-32h-272v32zM688 560h224v-32h-224v32zM880 624h32v-32h-32v32zM520 622.4c-4.8 3.2-11.2 3.2-16 0l-72-36.8v22.4c0 9.6-6.4 16-16 16h-81.6c1.6 4.8 1.6 11.2 1.6 16 0 62.4-49.6 112-112 112s-112-49.6-112-112c0-56 41.6-102.4 96-110.4v-113.6c0-9.6 6.4-16 16-16h192c9.6 0 16 6.4 16 16v22.4l72-36.8c3.2-1.6 4.8-1.6 8-1.6 9.6 0 16 6.4 16 16v192c0 4.8-3.2 11.2-8 14.4zM208 608v-46.4c-43.2 8-72 51.2-62.4 94.4 8 36.8 40 64 78.4 64 44.8 0 80-35.2 80-80 0-4.8 0-11.2-1.6-16h-78.4c-9.6 0-16-6.4-16-16zM288 592c-11.2-16-28.8-27.2-48-30.4v30.4h48zM400 489.6l-44.8 22.4 44.8 22.4v-44.8zM400 569.6l-88-43.2c-4.8-3.2-8-8-8-14.4s3.2-11.2 8-14.4l88-43.2v-22.4h-160v97.6c36.8 4.8 68.8 28.8 84.8 62.4h75.2v-22.4zM496 441.6l-64 32v76.8l64 32v-140.8zM992 960h32v-32h-32v32zM992 896h32v-32h-32v32zM928 960h32v-32h-32v32zM0 960h32v-32h-32v32zM64 960h32v-32h-32v32zM0 896h32v-32h-32v32zM0-32h32v-32h-32v32zM0 32h32v-32h-32v32zM64-32h32v-32h-32v32zM992-32h32v-32h-32v32zM928-32h32v-32h-32v32zM992 32h32v-32h-32v32z" />
<glyph unicode="&#xe914;" glyph-name="design-tool" d="M5.197 954.803l-5.197-5.397v-162.721l5.197-5.397 5.397-5.198h162.721l5.397 5.198 5.198 5.397v162.721l-5.198 5.397-5.397 5.197h-162.721l-5.397-5.197zM143.93 868.045v-51.975h-103.949v103.949h103.949v-51.975zM844.788 954.803l-5.198-5.397v-162.721l5.198-5.397 5.397-5.198h162.72l5.397 5.198 5.198 5.397v162.721l-5.198 5.397-5.397 5.197h-162.72l-5.397-5.197zM983.52 868.045v-51.975h-103.949v103.949h103.949v-51.975zM238.883 875.241c-8.996-8.996-8.996-21.39 0-30.385 4.397-4.398 6.397-4.798 22.988-4.798 17.592 0 18.591 0.2 24.189 5.797 4.597 4.598 5.796 7.596 5.796 14.193s-1.199 9.595-5.796 14.193c-5.598 5.597-6.597 5.797-24.189 5.797-16.591 0-18.591-0.4-22.988-4.798zM346.83 875.241c-8.996-8.996-8.996-21.39 0-30.385 4.598-4.598 5.798-4.798 34.183-4.798 29.386 0 29.585 0 35.183 5.397 4.597 4.398 5.597 6.997 5.597 14.593s-1 10.195-5.597 14.593c-5.598 5.397-5.798 5.397-35.183 5.397-28.386 0-29.585-0.2-34.183-4.798zM478.365 877.041c-9.994-6.997-9.994-26.987 0-33.983 6.198-4.398 60.57-4.398 66.768 0 9.994 6.997 9.994 26.987 0 33.983-6.198 4.398-60.57 4.398-66.768 0zM607.103 874.442c-4.198-4.398-5.397-7.596-5.397-14.393s1.199-9.995 5.397-14.393l5.397-5.597h29.585c28.786 0 29.985 0.2 34.584 4.798 5.597 5.797 7.996 13.194 6.196 20.39-0.799 2.799-3.598 7.396-6.196 9.995-4.598 4.598-5.798 4.798-34.584 4.798h-29.585l-5.397-5.597zM737.44 874.242c-4.598-4.598-5.798-7.596-5.798-14.193s1.199-9.595 5.798-14.193c5.597-5.597 6.597-5.797 24.188-5.797 16.592 0 18.591 0.4 22.988 4.798 5.598 5.797 7.997 13.194 6.198 20.39-0.801 2.799-3.598 7.396-6.198 9.995-4.397 4.398-6.396 4.798-22.988 4.798-17.591 0-18.591-0.2-24.188-5.797zM238.484 721.517c-69.767-69.767-76.563-76.963-76.563-82.96 0-3.598 1-8.595 2.199-10.994s45.977-48.176 99.35-101.751l97.353-97.551-52.375-52.375-52.374-52.573-27.987-79.761c-15.592-43.779-28.186-81.56-28.386-83.959-0.799-8.996 0.4-12.795 5.397-17.991 9.195-8.996 14.993-7.796 101.95 22.789l79.761 27.985 104.949 104.949 97.553-97.352c53.573-53.374 99.35-98.153 101.749-99.352 6.198-3.198 14.993-2.798 20.591 1 7.196 4.798 137.333 134.334 144.129 143.529 6.397 8.597 7.396 16.393 2.999 24.789-1.6 2.999-25.188 27.587-52.575 54.972l-49.776 49.377h-9.994c-13.594 0-20.79-6.997-20.79-19.991v-8.996l84.959-84.958-110.946-110.946-24.789 24.787-24.987 24.787 10.994 11.994c9.795 10.996 10.795 12.994 10.795 21.39 0 7.396-1 10.595-4.997 14.592-10.396 10.195-21.39 8.597-36.582-5.796l-11.394-10.595-14.393 14.393-14.594 14.194 28.987 29.185 28.985 29.386v9.396c0 10.394-5.397 17.991-14.793 20.39-10.195 2.598-15.991-1.199-44.777-29.786l-28.387-28.186-18.99 18.792-18.991 18.99 144.529 144.93c134.135 134.334 145.129 145.729 150.126 157.323 20.39 46.777 0 101.351-46.177 123.141-12.993 6.196-14.592 6.396-38.581 6.396-40.581 0-36.383 2.799-125.538-85.758l-74.364-74.163-97.553 97.352c-53.573 53.374-99.352 98.153-101.751 99.352s-7.396 2.198-10.994 2.198c-5.997 0-13.194-6.796-82.959-76.562zM413.398 657.548l88.358-88.356-110.946-110.946-18.991 18.99-18.79 18.991 28.186 28.386c28.585 28.786 32.384 34.584 29.784 44.779-2.399 9.396-9.994 14.793-20.39 14.793h-9.394l-29.386-28.987-29.186-28.985-28.786 29.186 9.996 9.795c14.792 14.592 16.991 27.387 6.597 37.981-3.999 3.799-7.196 4.999-14.393 4.999-8.396 0-9.996-0.801-20.591-11.394l-11.594-11.595-50.975 50.975 54.974 54.974c30.185 30.185 55.372 54.974 55.972 54.974s40.78-39.782 89.556-88.557zM750.833 715.12c9.396-3.798 21.99-15.993 26.587-25.787 4.999-10.195 5.598-29.985 1.199-40.581-1.799-3.997-12.194-16.591-23.389-27.985l-20.39-20.79-71.164 71.166 18.591 18.591c9.994 10.195 21.189 20.39 24.787 22.588 11.795 7.397 29.585 8.396 43.779 2.799zM669.674 605.174l34.982-34.984-327.84-327.839-70.965 70.965 163.32 163.32c89.956 89.956 163.921 163.521 164.521 163.521s16.792-15.792 35.982-34.982zM310.848 246.348c14.194-14.192 25.389-26.186 24.988-26.587-0.6-0.4-10.795-4.198-22.988-8.396-11.994-4.198-30.186-10.595-40.18-14.194l-18.392-6.396 8.996 25.188c4.997 13.993 11.394 32.384 14.194 40.979 2.999 8.396 5.796 15.393 6.396 15.393s12.795-11.595 26.987-25.988zM80.561 716.119c-9.595-5.796-13.194-23.188-8.596-40.38 4.398-15.792 22.789-20.99 34.183-9.795 5.597 5.597 5.797 6.796 5.797 23.188 0 19.392-1.599 23.589-9.995 27.987-7.796 3.999-13.793 3.798-21.39-1zM921.15 716.919c-7.996-4.198-9.595-8.597-9.595-27.787 0-16.391 0.199-17.591 5.798-23.188 4.597-4.598 7.595-5.798 14.192-5.798s9.595 1.199 14.194 5.798c5.597 5.597 5.798 6.796 5.798 23.188 0 19.392-1.6 23.589-9.996 27.987-7.196 3.798-13.393 3.798-20.39-0.199zM80.561 608.173c-8.996-5.397-11.195-15.393-10.195-43.779 0.8-22.589 0.999-22.789 7.196-28.387 8.596-7.796 19.59-7.996 28.186-0.6l6.197 5.198v28.985c0 15.993-1 30.585-1.999 32.784-2.599 4.598-12.194 9.795-18.391 9.795-2.599 0-7.396-1.799-10.995-3.997zM921.15 608.972c-2.999-1.6-6.397-4.598-7.597-6.798-0.999-1.999-1.999-16.792-1.999-32.584v-28.985l6.196-5.198c4.198-3.598 8.396-5.198 13.793-5.198s9.595 1.6 13.793 5.198l6.198 5.198v28.985c0 15.993-1 30.585-2 32.784-2.598 4.597-12.194 9.795-18.39 9.795-2.6-0.199-6.997-1.399-9.996-3.198zM82.559 479.234c-10.195-4.397-11.594-8.996-11.594-38.981 0-22.389 0.6-28.186 3.398-32.384 4.798-7.196 15.592-10.594 24.588-7.595 11.794 3.997 12.994 7.396 12.994 39.581 0 31.784-1.399 36.381-12.394 40.18-7.796 2.798-9.196 2.598-16.992-0.801zM922.15 479.236c-3.399-1.4-7.196-4.399-8.396-6.798-3.598-6.396-2.799-60.37 0.799-65.567 6.997-9.996 26.987-9.996 33.984 0 3.598 5.198 4.397 59.172 0.799 65.768-1.999 3.798-13.194 9.595-18.191 9.595-1.4-0.201-5.397-1.4-8.996-2.999zM678.468 428.46c-8.795-5.397-11.994-14.194-8.996-24.189 2.799-9.195 9.996-13.993 21.191-13.993 20.39 0 26.387 29.985 7.996 38.981-8.595 3.999-12.594 3.798-20.191-0.799zM77.562 344.501c-6.197-5.597-6.397-5.798-7.196-28.386-1-28.387 1.199-38.381 10.195-43.779 3.598-2.199 8.396-3.999 10.995-3.999 6.197 0 15.792 5.198 18.391 9.795 0.999 2.199 1.999 16.792 1.999 32.784v28.985l-6.197 5.198c-8.596 7.396-19.59 7.196-28.186-0.6zM917.751 345.101l-6.196-5.198v-29.786c0-28.985 0.199-30.185 4.798-34.783 2.598-2.598 7.196-5.397 9.996-6.196 7.196-1.799 14.592 0.6 20.39 6.196 4.597 4.598 4.798 5.798 4.798 34.783v29.786l-6.198 5.198c-8.396 6.996-19.191 6.996-27.587 0zM77.961 214.765c-6.597-6.597-9.195-19.191-6.997-33.584 2.799-19.79 22.589-27.188 36.182-13.793 4.398 4.397 4.798 6.396 4.798 22.988 0 17.591-0.2 18.591-5.797 24.188-8.196 8.196-20.19 8.196-28.186 0.201zM917.353 214.564c-5.598-5.597-5.798-6.597-5.798-24.188 0-16.592 0.4-18.591 4.798-22.99 8.996-8.996 21.39-8.996 30.386 0 4.397 4.399 4.798 6.397 4.798 22.99 0 17.591-0.201 18.591-5.798 24.188-4.598 4.598-7.597 5.798-14.194 5.798s-9.595-1.199-14.192-5.798zM5.197 115.213l-5.197-5.397v-162.722l5.197-5.397 5.397-5.198h162.721l5.397 5.198 5.198 5.397v162.722l-5.198 5.397-5.397 5.196h-162.721l-5.397-5.196zM143.93 28.455v-51.975h-103.949v103.95h103.949v-51.975zM844.788 115.213l-5.198-5.397v-162.722l5.198-5.397 5.397-5.198h162.72l5.397 5.198 5.198 5.397v162.722l-5.198 5.397-5.397 5.196h-162.72l-5.397-5.196zM983.52 28.455v-51.975h-103.949v103.95h103.949v-51.975zM238.883 35.652c-8.996-8.996-8.996-21.39 0-30.386 4.397-4.397 6.397-4.798 22.988-4.798 17.592 0 18.591 0.199 24.189 5.798 4.597 4.597 5.796 7.595 5.796 14.192s-1.199 9.595-5.796 14.194c-5.598 5.597-6.597 5.798-24.189 5.798-16.591 0-18.591-0.4-22.988-4.798zM346.83 35.652c-8.996-8.996-8.996-21.39 0-30.386 4.598-4.598 5.798-4.798 34.183-4.798 29.386 0 29.585 0 35.183 5.397 4.597 4.397 5.597 6.997 5.597 14.592 0 7.597-1 10.195-5.597 14.594-5.598 5.397-5.798 5.397-35.183 5.397-28.386 0-29.585-0.201-34.183-4.798zM478.367 37.451c-6.397-4.598-9.396-15.393-6.597-23.988 3.999-11.795 7.396-12.994 39.981-12.994s35.982 1.199 39.979 12.994c2.799 8.595-0.199 19.39-6.597 23.988-6.196 4.397-60.57 4.397-66.767 0zM606.904 34.252c-7.196-8.595-7.196-20.589 0.201-28.186l5.397-5.597h29.585c28.786 0 29.985 0.199 34.584 4.798 2.598 2.598 5.397 7.196 6.196 9.996 1.799 7.196-0.6 14.592-6.196 20.39-4.598 4.597-5.798 4.798-34.783 4.798h-29.786l-5.198-6.198zM737.44 34.652c-4.598-4.598-5.798-7.597-5.798-14.194s1.199-9.595 5.798-14.192c5.597-5.598 6.597-5.798 24.188-5.798 16.592 0 18.591 0.4 22.988 4.798 2.6 2.598 5.397 7.196 6.198 9.996 1.799 7.196-0.6 14.592-6.198 20.39-4.397 4.397-6.396 4.798-22.988 4.798-17.591 0-18.591-0.201-24.188-5.798z" />
<glyph unicode="&#xe915;" glyph-name="download" d="M189.932 284.16c22.622 0 40.96-18.338 40.96-40.96v0-81.92c0-22.622 18.338-40.96 40.96-40.96v0h491.52c22.622 0 40.96 18.338 40.96 40.96v0 81.92c0 22.622 18.338 40.96 40.96 40.96s40.96-18.338 40.96-40.96v0-81.92c0-67.865-55.015-122.88-122.88-122.88v0h-491.52c-67.865 0-122.88 55.015-122.88 122.88v0 81.92c0 22.622 18.338 40.96 40.96 40.96v0zM283.853 517.919c7.412 7.41 17.65 11.993 28.959 11.993s21.547-4.583 28.959-11.993l175.841-175.841 175.841 175.841c7.459 7.715 17.901 12.505 29.462 12.505 22.622 0 40.96-18.338 40.96-40.96 0-11.561-4.79-22.003-12.493-29.451l-204.811-204.811c-7.412-7.41-17.65-11.993-28.959-11.993s-21.547 4.583-28.959 11.993l-204.8 204.8c-7.41 7.412-11.993 17.65-11.993 28.959s4.583 21.547 11.993 28.959v0zM517.612 816.64c22.622 0 40.96-18.338 40.96-40.96v0-491.52c0-22.622-18.338-40.96-40.96-40.96s-40.96 18.338-40.96 40.96v0 491.52c0 22.622 18.338 40.96 40.96 40.96v0z" />
<glyph unicode="&#xe916;" glyph-name="envelope-solid" d="M810.667 874.667h-597.333c-56.559-0.062-110.781-20.514-150.775-56.872s-62.491-85.651-62.558-137.068v-465.454c0.068-51.416 22.566-100.71 62.558-137.068s94.216-56.809 150.775-56.872h597.333c56.559 0.063 110.78 20.514 150.773 56.872s62.492 85.652 62.561 137.068v465.454c-0.068 51.417-22.568 100.71-62.561 137.068s-94.214 56.81-150.773 56.872zM213.333 797.091h597.333c25.549-0.046 50.495-7.041 71.634-20.084s37.501-31.54 46.979-53.109l-326.741-297.076c-24.047-21.773-56.601-33.996-90.539-33.996s-66.493 12.224-90.539 33.996l-326.741 297.076c9.478 21.568 25.84 40.065 46.978 53.109s46.087 20.039 71.635 20.084zM810.667 98.907h-597.333c-33.948 0-66.505 12.26-90.51 34.082s-37.49 51.422-37.49 82.284v407.272l275.797-250.569c40.048-36.316 94.304-56.71 150.869-56.71s110.82 20.394 150.869 56.71l275.797 250.569v-407.272c0-30.862-13.488-60.462-37.49-82.284-24.007-21.823-56.565-34.082-90.51-34.082z" />
<glyph unicode="&#xe917;" glyph-name="eye" d="M512.004 290.266c87.066 0 157.646 70.582 157.646 157.646 0 87.066-70.58 157.648-157.646 157.648s-157.646-70.582-157.646-157.648c0-87.064 70.58-157.646 157.646-157.646zM1008.296 491.58c-121.18 146.435-304.612 287.391-496.292 287.391-191.718 0-375.193-141.054-496.292-287.391-20.947-25.302-20.947-62.034 0-87.336 30.446-36.79 94.273-107.81 179.52-169.864 214.693-156.29 418.377-156.636 633.543 0 85.246 62.054 149.074 133.074 179.52 169.864 20.886 25.254 20.994 61.952 0 87.336zM512.004 668.618c121.704 0 220.706-99.002 220.706-220.706 0-121.702-99.002-220.704-220.706-220.704s-220.706 99.002-220.706 220.704c0 121.704 99.002 220.706 220.706 220.706z" />
<glyph unicode="&#xe918;" glyph-name="facebook" d="M1008 448c0 274-222 496-496 496s-496-222-496-496c0-247.56 181.38-452.76 418.5-490v346.62h-126v143.38h126v109.28c0 124.3 74 192.96 187.34 192.96 54.28 0 111.040-9.68 111.040-9.68v-122h-62.56c-61.6 0-80.82-38.24-80.82-77.46v-93.1h137.56l-22-143.38h-115.56v-346.62c237.12 37.24 418.5 242.44 418.5 490z" />
<glyph unicode="&#xe919;" glyph-name="graphic-design" d="M952 832h-880c-30.914-0.035-55.965-25.086-56-55.997v-608.003c0.035-30.914 25.086-55.965 55.997-56h306.783l-22.84-80h-67.94c-8.837 0-16-7.163-16-16v0-48c0-8.837 7.163-16 16-16v0h448c8.837 0 16 7.163 16 16v0 48c0 8.837-7.163 16-16 16v0h-67.94l-22.84 80h306.78c30.914 0.035 55.965 25.086 56 55.997v608.003c-0.035 30.914-25.086 55.965-55.997 56h-0.003zM720 0v-16h-416v16zM389.22 32l22.84 80h199.88l22.84-80zM976 168c-0.011-13.25-10.75-23.989-23.999-24h-880.001c-13.25 0.011-23.989 10.75-24 23.999v40.001h928zM976 240h-928v536c0.011 13.25 10.75 23.989 23.999 24h880.001c13.25-0.011 23.989-10.75 24-23.999v-0.001zM96 640h64c8.837 0 16 7.163 16 16v0 64c0 8.837-7.163 16-16 16v0h-64c-8.837 0-16-7.163-16-16v0-64c0-8.837 7.163-16 16-16v0zM112 704h32v-32h-32zM96 528h64c8.837 0 16 7.163 16 16v0 64c0 8.837-7.163 16-16 16v0h-64c-8.837 0-16-7.163-16-16v0-64c0-8.837 7.163-16 16-16v0zM112 592h32v-32h-32zM96 416h64c8.837 0 16 7.163 16 16v0 64c0 8.837-7.163 16-16 16v0h-64c-8.837 0-16-7.163-16-16v0-64c0-8.837 7.163-16 16-16v0zM112 480h32v-32h-32zM96 304h64c8.837 0 16 7.163 16 16v0 64c0 8.837-7.163 16-16 16v0h-64c-8.837 0-16-7.163-16-16v0-64c0-8.837 7.163-16 16-16v0zM112 368h32v-32h-32zM864 640h64c8.837 0 16 7.163 16 16v0 64c0 8.837-7.163 16-16 16v0h-64c-8.837 0-16-7.163-16-16v0-64c0-8.837 7.163-16 16-16v0zM880 704h32v-32h-32zM864 528h64c8.837 0 16 7.163 16 16v0 64c0 8.837-7.163 16-16 16v0h-64c-8.837 0-16-7.163-16-16v0-64c0-8.837 7.163-16 16-16v0zM880 592h32v-32h-32zM864 416h64c8.837 0 16 7.163 16 16v0 64c0 8.837-7.163 16-16 16v0h-64c-8.837 0-16-7.163-16-16v0-64c0-8.837 7.163-16 16-16v0zM880 480h32v-32h-32zM864 304h64c8.837 0 16 7.163 16 16v0 64c0 8.837-7.163 16-16 16v0h-64c-8.837 0-16-7.163-16-16v0-64c0-8.837 7.163-16 16-16v0zM880 368h32v-32h-32zM336.122 420.020l-30.432-60.864c-1.065-2.085-1.689-4.548-1.689-7.156 0-8.836 7.163-16 15.999-16h160c8.836 0 15.999 7.164 15.999 16 0 2.608-0.624 5.071-1.731 7.247l0.042-0.091-43.624 87.244c27.687 23.609 45.131 58.523 45.131 97.511 0 70.642-57.266 127.908-127.908 127.908s-127.908-57.266-127.908-127.908c0-59.347 40.418-109.254 95.229-123.696l0.891-0.2zM454.122 368h-108.234l24.026 48.048c19.621 0.27 38.088 4.941 54.545 13.066l-0.745-0.332zM386.82 449.864l13.18 26.358 9.41-18.82c-6.503-3.204-14.060-5.809-21.975-7.433l-0.615-0.105zM368 640c0.014 0 0.030 0 0.047 0 52.994 0 95.954-42.96 95.954-95.954 0-26.532-10.768-50.549-28.173-67.918l-0.002-0.002-21.516 43.030c-2.686 5.285-8.082 8.843-14.31 8.843s-11.624-3.558-14.268-8.752l-0.042-0.091-34.8-69.6c-45.163 8.387-78.907 47.481-78.907 94.456 0 53.013 42.975 95.988 95.988 95.988 0.010 0 0.020 0 0.031 0h-0.002zM508.332 415.586l184.222-54.096c1.355-0.415 2.912-0.654 4.524-0.654 7.227 0 13.334 4.799 15.307 11.385l0.029 0.113 54.098 184.22c0.411 1.35 0.648 2.901 0.648 4.508 0 7.23-4.795 13.34-11.379 15.323l-0.113 0.029-184.222 54.096c-1.35 0.411-2.901 0.648-4.508 0.648-7.23 0-13.34-4.795-15.323-11.379l-0.029-0.113-54.098-184.22c-0.411-1.35-0.648-2.901-0.648-4.508 0-7.23 4.795-13.34 11.379-15.323l0.113-0.029zM577.782 595.3l153.518-45.082-45.082-153.518-153.518 45.082zM264.844 881.69l64-32c2.084-1.066 4.546-1.69 7.154-1.69 0.001 0 0.001 0 0.002 0h384c26.51 0 48 21.49 48 48s-21.49 48-48 48v0h-384c-0.001 0-0.001 0-0.002 0-2.608 0-5.070-0.624-7.245-1.732l0.091 0.042-64-32c-5.285-2.686-8.843-8.082-8.843-14.31s3.558-11.624 8.752-14.268l0.091-0.042zM736 896c-0.010-8.832-7.168-15.99-15.999-16h-336.001v32h336c8.832-0.010 15.99-7.168 16-15.999v-0.001zM339.778 912h12.222v-32h-12.222l-32 16z" />
<glyph unicode="&#xe91a;" glyph-name="heart" d="M451.6 23.6l-5 4.6-350.4 325.4c-61.4 57-96.2 137-96.2 220.8v6.6c0 140.8 100 261.6 238.4 288 78.8 15.2 159.4-3 223.6-48.2 18-12.8 34.8-27.6 50-44.6 8.4 9.6 17.4 18.4 27 26.6 7.4 6.4 15 12.4 23 18 0 0 0 0 0 0 64.2 45.2 144.8 63.4 223.6 48.4 138.4-26.4 238.4-147.4 238.4-288.2v-6.6c0-83.8-34.8-163.8-96.2-220.8l-355.4-330c-16.4-15.2-38-23.8-60.4-23.8s-44 8.4-60.4 23.8zM478.2 670c-0.8 0.6-1.4 1.4-2 2.2l-35.6 40c0 0-0.2 0.2-0.2 0.2s0 0 0 0c-46.2 51.8-116 75.4-184 62.4-93.2-17.8-160.4-99-160.4-193.8v-6.6c0-57 23.8-111.6 65.6-150.4l350.4-325.4 350.4 325.4c41.8 38.8 65.6 93.4 65.6 150.4v6.6c0 94.6-67.2 176-160.2 193.8-68 13-138-10.8-184-62.4 0 0 0 0-0.2-0.2s0 0-0.2-0.2l-35.6-40c-0.6-0.8-1.4-1.4-2-2.2-9-9-21.2-14-33.8-14s-24.8 5-33.8 14z" />
<glyph unicode="&#xe91b;" glyph-name="instagram" d="M512.2 678c-127.2 0-229.8-102.6-229.8-229.8s102.6-229.8 229.8-229.8 229.8 102.6 229.8 229.8-102.6 229.8-229.8 229.8zM512.2 298.8c-82.2 0-149.4 67-149.4 149.4s67 149.4 149.4 149.4 149.4-67 149.4-149.4-67.2-149.4-149.4-149.4zM805 687.4c0-29.8-24-53.6-53.6-53.6-29.8 0-53.6 24-53.6 53.6s24 53.6 53.6 53.6 53.6-24 53.6-53.6zM957.2 633c-3.4 71.8-19.8 135.4-72.4 187.8-52.4 52.4-116 68.8-187.8 72.4-74 4.2-295.8 4.2-369.8 0-71.6-3.4-135.2-19.8-187.8-72.2s-68.8-116-72.4-187.8c-4.2-74-4.2-295.8 0-369.8 3.4-71.8 19.8-135.4 72.4-187.8s116-68.8 187.8-72.4c74-4.2 295.8-4.2 369.8 0 71.8 3.4 135.4 19.8 187.8 72.4 52.4 52.4 68.8 116 72.4 187.8 4.2 74 4.2 295.6 0 369.6zM861.6 184c-15.6-39.2-45.8-69.4-85.2-85.2-59-23.4-199-18-264.2-18s-205.4-5.2-264.2 18c-39.2 15.6-69.4 45.8-85.2 85.2-23.4 59-18 199-18 264.2s-5.2 205.4 18 264.2c15.6 39.2 45.8 69.4 85.2 85.2 59 23.4 199 18 264.2 18s205.4 5.2 264.2-18c39.2-15.6 69.4-45.8 85.2-85.2 23.4-59 18-199 18-264.2s5.4-205.4-18-264.2z" />
<glyph unicode="&#xe91c;" glyph-name="link" d="M614.296 889.704l-208.134-208.132c-0.402-0.4-0.652-0.886-1.052-1.29 51.274 7.468 103.948 2.348 152.776-16.692l141.26 141.26c46.798 46.798 122.908 46.798 169.706 0 46.798-46.794 46.798-122.908 0-169.702-7.98-7.984-220.166-220.17-208.132-208.132-47.168-47.172-124.552-45.154-169.706 0-23.386 23.386-61.462 23.386-84.852 0l-36.428-36.428c10.104-17.168 21.688-33.688 36.428-48.428 88.88-88.88 241.868-95.98 338.122-1.052 0.402 0.4 0.886 0.652 1.29 1.052l208.132 208.132c93.724 93.728 93.724 245.684 0 339.412-93.728 93.728-245.682 93.728-339.41 0zM466.57 232.864l-141.716-141.716c-46.794-46.798-122.908-46.798-169.702 0-46.798 46.798-46.798 122.908 0 169.706l208.586 208.586c47.168 47.168 124.552 45.154 169.706 0 23.386-23.39 61.464-23.39 84.852 0l36.428 36.428c-10.104 17.168-21.688 33.688-36.428 48.424-88.71 88.714-241.586 96.262-338.122 1.054-0.402-0.4-0.886-0.652-1.29-1.054l-208.588-208.588c-93.724-93.724-93.728-245.684 0-339.412 93.728-93.724 245.688-93.724 339.412 0l208.586 208.59c0.402 0.4 0.652 0.882 1.052 1.29-51.274-7.468-103.946-2.348-152.776 16.692z" />
<glyph unicode="&#xe91d;" glyph-name="linkedin-in" d="M264.56 64h-185.76v598.2h185.76zM171.58 743.8c-59.4 0-107.58 49.2-107.58 108.6 0 59.415 48.165 107.58 107.58 107.58s107.58-48.165 107.58-107.58v0c0-59.4-48.2-108.6-107.58-108.6zM959.8 64h-185.36v291.2c0 69.4-1.4 158.4-96.58 158.4-96.58 0-111.38-75.4-111.38-153.4v-296.2h-185.56v598.2h178.16v-81.6h2.6c24.8 47 85.38 96.6 175.76 96.6 188 0 222.56-123.8 222.56-284.6v-328.6z" />
<glyph unicode="&#xe91e;" glyph-name="location-dot" d="M559.4-38.4c102.6 128.4 336.6 439.6 336.6 614.4 0 212-172 384-384 384s-384-172-384-384c0-174.8 234-486 336.6-614.4 24.6-30.6 70.2-30.6 94.8 0zM512 704c70.692 0 128-57.308 128-128s-57.308-128-128-128v0c-70.692 0-128 57.308-128 128s57.308 128 128 128v0z" />
<glyph unicode="&#xe91f;" glyph-name="magnifying-glass" d="M1014.294-8.29l-264.38 260.155c69.233 75.219 111.771 174.698 111.771 284.164-0.033 234.168-192.91 423.971-430.854 423.971s-430.821-189.803-430.821-423.971 192.877-423.971 430.821-423.971c102.808 0 197.102 35.56 271.168 94.678l265.406-261.181c12.932-12.74 33.927-12.74 46.859 0 6.003 5.867 9.726 14.045 9.726 23.092 0 9.033-3.71 17.199-9.69 23.057l-0.005 0.005zM430.831 177.289c-201.326 0-364.533 160.613-364.533 358.74s163.207 358.74 364.533 358.74c201.328 0 364.533-160.613 364.533-358.74s-163.205-358.74-364.533-358.74z" />
<glyph unicode="&#xe920;" glyph-name="monitor" d="M938.667 903.111h-853.333c-47.111 0-85.333-38.222-85.333-85.333v-568.889c0-47.111 38.222-85.333 85.333-85.333h341.333l-28.444-85.333h-128c-23.644 0-42.667-19.022-42.667-42.667s19.022-42.667 42.667-42.667h483.556c23.644 0 42.667 19.022 42.667 42.667s-19.022 42.667-42.667 42.667h-128l-28.444 85.333h341.333c47.111 0 85.333 38.222 85.333 85.333v568.889c0 47.111-38.222 85.333-85.333 85.333zM910.222 277.333h-796.444v512h796.444v-512z" />
<glyph unicode="&#xe921;" glyph-name="quotation-bottom-left" d="M86.4 77.969c-21.467 11.161-47.228 33.489-60.109 53.235-21.467 32.633-23.185 42.081-25.761 146.839-1.717 65.261 0.859 125.37 6.011 143.403 17.174 56.674 95.316 110.772 162.294 110.772 18.891 0 17.174 2.576-17.174 52.38-69.555 98.75-76.424 112.49-72.131 147.696 10.304 86.729 102.186 135.675 173.458 92.74 37.782-23.185 115.065-121.077 157.142-198.36 48.946-91.022 60.967-150.272 60.967-308.273 0-155.422-11.163-191.487-71.272-230.992-32.631-22.322-41.218-23.185-155.425-25.761-109.913-1.713-124.511-0.857-158.001 16.32zM346.586 147.524c39.5 18.033 47.228 46.37 47.228 169.161 0 117.642-8.587 177.751-35.206 239.577-34.348 79.859-133.957 207.806-161.436 207.806-8.587 0-22.326-7.728-31.772-18.033-18.033-19.75-22.326-9.446 54.098-123.653 72.131-105.62 60.109-155.425-41.218-168.306-45.511-6.011-59.25-12.021-78.142-33.489-23.185-24.902-24.043-29.196-24.043-121.077 0-103.041 11.163-139.969 45.511-153.706 28.337-11.161 199.218-10.304 224.979 1.72zM635.968 77.962c-21.467 11.167-47.228 33.489-60.109 53.242-21.468 32.633-23.185 42.074-25.761 145.98-3.435 128.805 6.869 169.164 54.098 211.24 29.196 25.761 76.422 43.794 114.207 43.794 18.889 0 18.889 0 4.296 23.185-8.591 13.74-31.776 46.37-51.522 73.848-45.513 61.826-53.242 97.033-31.774 140.827 33.487 66.978 109.914 90.163 167.445 51.522 41.218-27.478 113.348-120.218 152.853-194.925 50.659-97.033 60.963-147.696 60.963-305.697 0-158.004-11.161-194.069-71.268-233.567-32.633-22.328-41.218-23.185-155.429-25.761-109.909-1.72-124.509-0.857-157.999 16.313zM895.298 145.804c39.498 14.594 48.083 47.226 48.083 177.75 0 140.827-12.018 195.784-60.963 281.654-42.081 74.707-115.068 158.859-137.396 158.859-8.585 0-22.322-9.445-30.050-21.467-12.881-19.75-12.881-23.185 0-41.218 93.596-130.523 98.748-139.968 99.605-170.023 0-48.946-21.465-68.696-86.724-78.142-40.361-5.152-60.113-12.881-76.426-28.337-19.75-20.609-21.467-29.196-24.043-116.784-5.152-154.565 8.587-170.021 154.568-170.884 50.659 0 101.324 3.439 113.348 8.591z" />
<glyph unicode="&#xe922;" glyph-name="quotation-bottom-right" d="M934.268 77.969c21.465 11.161 47.226 33.489 60.107 53.235 21.465 32.633 23.185 42.081 25.761 146.839 1.72 65.261-0.857 125.37-6.009 143.403-17.176 56.674-95.316 110.772-162.294 110.772-18.896 0-17.176 2.576 17.17 52.38 69.555 98.75 76.426 112.49 72.131 147.696-10.304 86.729-102.181 135.675-173.455 92.74-37.785-23.185-115.068-121.077-157.141-198.36-48.946-91.022-60.968-150.272-60.968-308.273 0-155.422 11.163-191.487 71.272-230.992 32.632-22.322 41.217-23.185 155.422-25.761 109.916-1.713 124.516-0.857 158.005 16.32zM674.082 147.524c-39.501 18.033-47.23 46.37-47.23 169.161 0 117.642 8.587 177.751 35.206 239.577 34.346 79.859 133.957 207.806 161.438 207.806 8.585 0 22.322-7.728 31.77-18.033 18.033-19.75 22.328-9.446-54.098-123.653-72.131-105.62-60.107-155.425 41.218-168.306 45.513-6.011 59.25-12.021 78.14-33.489 23.185-24.902 24.048-29.196 24.048-121.077 0-103.041-11.167-139.969-45.513-153.706-28.337-11.161-199.216-10.304-224.977 1.72zM384.698 77.962c21.467 11.167 47.228 33.489 60.109 53.242 21.468 32.633 23.185 42.074 25.761 145.98 3.435 128.805-6.869 169.164-54.098 211.24-29.196 25.761-76.424 43.794-114.207 43.794-18.891 0-18.891 0-4.294 23.185 8.587 13.74 31.772 46.37 51.523 73.848 45.511 61.826 53.239 97.033 31.772 140.827-33.489 66.978-109.914 90.163-167.447 51.522-41.218-27.478-113.348-120.218-152.849-194.925-50.663-97.033-60.968-147.696-60.968-305.697 0-158.004 11.163-194.069 71.272-233.567 32.631-22.328 41.218-23.185 155.425-25.761 109.913-1.72 124.511-0.857 158.001 16.313zM125.37 145.804c-39.5 14.594-48.087 47.226-48.087 177.75 0 140.827 12.022 195.784 60.968 281.654 42.076 74.707 115.065 158.859 137.392 158.859 8.587 0 22.326-9.445 30.055-21.467 12.881-19.75 12.881-23.185 0-41.218-93.599-130.523-98.751-139.968-99.609-170.023 0-48.946 21.467-68.696 86.728-78.142 40.359-5.152 60.109-12.881 76.425-28.337 19.75-20.609 21.467-29.196 24.043-116.784 5.152-154.565-8.587-170.021-154.566-170.884-50.663 0-101.326 3.439-113.348 8.591z" />
<glyph unicode="&#xe923;" glyph-name="quotation-top-left" d="M86.4 823.927c-21.467-11.163-47.228-33.489-60.109-53.24-21.467-32.63-23.185-42.076-25.761-146.838-1.717-65.261 0.859-125.37 6.011-143.403 17.174-56.674 95.316-110.772 162.294-110.772 18.891 0 17.174-2.576-17.174-52.381-69.555-98.75-76.424-112.489-72.131-147.699 10.304-86.724 102.186-135.67 173.458-92.74 37.782 23.185 115.065 121.080 157.142 198.363 48.946 91.022 60.967 150.272 60.967 308.274 0 155.425-11.163 191.49-71.272 230.99-32.631 22.326-41.218 23.185-155.425 25.761-109.913 1.717-124.511 0.859-158.001-16.315zM346.586 754.372c39.5-18.033 47.228-46.37 47.228-169.164 0-117.641-8.587-177.751-35.206-239.577-34.348-79.859-133.957-207.806-161.436-207.806-8.587 0-22.326 7.728-31.772 18.033-18.033 19.752-22.326 9.448 54.098 123.654 72.131 105.62 60.109 155.425-41.218 168.305-45.511 6.011-59.25 12.022-78.142 33.489-23.185 24.903-24.043 29.196-24.043 121.077 0 103.044 11.163 139.968 45.511 153.708 28.337 11.163 199.218 10.304 224.979-1.718zM635.968 823.927c-21.467-11.163-47.228-33.489-60.109-53.239-21.468-32.631-23.185-42.077-25.761-145.979-3.435-128.805 6.869-169.164 54.098-211.24 29.196-25.761 76.422-43.794 114.207-43.794 18.889 0 18.889 0 4.296-23.185-8.591-13.739-31.776-46.37-51.522-73.848-45.513-61.826-53.242-97.032-31.774-140.826 33.487-66.979 109.914-90.164 167.445-51.522 41.218 27.481 113.348 120.217 152.853 194.924 50.659 97.033 60.963 147.697 60.963 305.697s-11.161 194.066-71.268 233.567c-32.633 22.326-41.218 23.185-155.429 25.761-109.909 1.717-124.509 0.859-157.999-16.315zM895.298 756.090c39.498-14.598 48.083-47.228 48.083-177.751 0-140.827-12.018-195.784-60.963-281.653-42.081-74.707-115.068-158.861-137.396-158.861-8.585 0-22.322 9.448-30.050 21.472-12.881 19.746-12.881 23.185 0 41.214 93.596 130.523 98.748 139.969 99.605 170.023 0 48.946-21.465 68.696-86.724 78.142-40.361 5.152-60.113 12.881-76.426 28.337-19.75 20.609-21.467 29.196-24.043 116.783-5.152 154.566 8.587 170.023 154.568 170.881 50.659 0 101.324-3.435 113.348-8.587z" />
<glyph unicode="&#xe924;" glyph-name="quotation-top-right" d="M934.268 823.927c21.465-11.163 47.226-33.489 60.107-53.24 21.465-32.63 23.185-42.076 25.761-146.838 1.72-65.261-0.857-125.37-6.009-143.403-17.176-56.674-95.316-110.772-162.294-110.772-18.896 0-17.176-2.576 17.17-52.381 69.555-98.75 76.426-112.489 72.131-147.699-10.304-86.724-102.181-135.67-173.455-92.74-37.785 23.185-115.068 121.080-157.141 198.363-48.946 91.022-60.968 150.272-60.968 308.274 0 155.425 11.163 191.49 71.272 230.99 32.632 22.326 41.217 23.185 155.422 25.761 109.916 1.717 124.516 0.859 158.005-16.315zM674.082 754.372c-39.501-18.033-47.23-46.37-47.23-169.164 0-117.641 8.587-177.751 35.206-239.577 34.346-79.859 133.957-207.806 161.438-207.806 8.585 0 22.322 7.728 31.77 18.033 18.033 19.752 22.328 9.448-54.098 123.654-72.131 105.62-60.107 155.425 41.218 168.305 45.513 6.011 59.25 12.022 78.14 33.489 23.185 24.903 24.048 29.196 24.048 121.077 0 103.044-11.167 139.968-45.513 153.708-28.337 11.163-199.216 10.304-224.977-1.718zM384.698 823.927c21.467-11.163 47.228-33.489 60.109-53.239 21.468-32.631 23.185-42.077 25.761-145.979 3.435-128.805-6.869-169.164-54.098-211.24-29.196-25.761-76.424-43.794-114.207-43.794-18.891 0-18.891 0-4.294-23.185 8.587-13.739 31.772-46.37 51.523-73.848 45.511-61.826 53.239-97.032 31.772-140.826-33.489-66.979-109.914-90.164-167.447-51.522-41.218 27.481-113.348 120.217-152.849 194.924-50.663 97.033-60.968 147.697-60.968 305.697s11.163 194.066 71.272 233.567c32.631 22.326 41.218 23.185 155.425 25.761 109.913 1.717 124.511 0.859 158.001-16.315zM125.37 756.090c-39.5-14.598-48.087-47.228-48.087-177.751 0-140.827 12.022-195.784 60.968-281.653 42.076-74.707 115.065-158.861 137.392-158.861 8.587 0 22.326 9.448 30.055 21.472 12.881 19.746 12.881 23.185 0 41.214-93.599 130.523-98.751 139.969-99.609 170.023 0 48.946 21.467 68.696 86.728 78.142 40.359 5.152 60.109 12.881 76.425 28.337 19.75 20.609 21.467 29.196 24.043 116.783 5.152 154.566-8.587 170.023-154.566 170.881-50.663 0-101.326-3.435-113.348-8.587z" />
<glyph unicode="&#xe925;" glyph-name="research" d="M789.336 960h-725.334c-35.346 0-64-28.654-64-64v-512c0-35.346 28.654-64 64-64h277.334v42.666h-277.334c-11.782 0-21.334 9.552-21.334 21.334v512c0 11.782 9.552 21.334 21.334 21.334h725.334c11.782 0 21.334-9.552 21.334-21.334v-384h42.666v384c0 35.346-28.654 64-64 64zM256.002 341.334h42.666v-128h-42.666v128zM149.336 448c-11.782 0-21.334 9.552-21.334 21.334v42.666h-42.666v-42.666c0-35.346 28.654-64 64-64h42.666v42.666h-42.666zM85.336 597.334h42.666v-42.666h-42.666v42.666zM779.672 508.118c-21.526 21.528-47.080 38.606-75.206 50.258-28.126 11.65-58.272 17.648-88.716 17.646-128.012-0.006-231.782-103.784-231.778-231.796 0.006-128.012 103.784-231.782 231.796-231.778 61.464 0.002 120.41 24.416 163.874 67.874 90.526 90.51 90.54 237.268 0.030 327.796zM615.64 155.094c-104.448 0.036-189.092 84.736-189.056 189.184s84.736 189.092 189.184 189.056c24.854 0.068 49.474-4.8 72.43-14.322 22.958-9.522 43.798-23.506 61.308-41.144 35.436-35.478 55.334-83.574 55.318-133.718-0.036-104.448-84.736-189.092-189.184-189.056zM1017.752 32l-133.91 133.866c-4 4-9.426 6.25-15.082 6.25-5.658-0.002-11.082-2.25-15.082-6.25l-59.52-59.52c-8.328-8.33-8.328-21.834 0-30.166l133.91-133.93c4-4.002 9.426-6.25 15.082-6.25 2.806 0.008 5.582 0.572 8.17 1.654 2.588 1.084 4.936 2.668 6.912 4.66l59.52 59.52c8.328 8.332 8.328 21.836 0 30.166zM943.148-12.502l-103.744 103.766 29.354 29.354 103.744-103.766-29.354-29.354zM749.5 180.344l30.17 30.17 74.398-74.4-30.17-30.168-74.398 74.398zM618.668 490.666v-42.666c58.882-0.070 106.596-47.786 106.666-106.666h42.666c-0.092 82.434-66.896 149.238-149.332 149.332zM213.336 234.666h170.666v-42.666h-170.666v42.666zM320.002 874.666c-35.346 0-64-28.654-64-64s28.654-64 64-64c35.346 0 64 28.654 64 64s-28.654 64-64 64zM320.002 789.334c-11.782 0-21.334 9.552-21.334 21.334s9.552 21.334 21.334 21.334c11.782 0 21.334-9.552 21.334-21.334 0-11.784-9.552-21.334-21.334-21.334zM469.336 725.334c-35.346 0-64-28.654-64-64s28.654-64 64-64c35.346 0 64 28.654 64 64s-28.654 64-64 64zM469.336 640c-11.782 0-21.334 9.552-21.334 21.334s9.552 21.334 21.334 21.334c11.782 0 21.334-9.552 21.334-21.334-0.002-11.782-9.552-21.334-21.334-21.334zM176.916 697.746l106.664 106.666 30.17-30.17-106.664-106.664-30.17 30.168zM326.158 774.188l30.168 30.168 106.666-106.664-30.17-30.17-106.664 106.666zM618.668 874.666c-35.346 0-64-28.654-64-64s28.654-64 64-64c35.346 0 64 28.654 64 64 0.002 35.346-28.652 64-64 64zM618.668 789.334c-11.782 0-21.334 9.552-21.334 21.334s9.552 21.334 21.334 21.334c11.782 0 21.334-9.552 21.334-21.334 0-11.784-9.552-21.334-21.334-21.334zM475.572 697.672l106.664 106.664 30.17-30.168-106.666-106.666-30.168 30.17z" />
<glyph unicode="&#xe926;" glyph-name="twitter" d="M918.74 656.568c0.65-9.096 0.65-18.194 0.65-27.29 0-277.44-211.166-597.116-597.116-597.116-118.904 0-229.36 34.438-322.274 94.212 16.894-1.948 33.136-2.598 50.68-2.598 98.11 0 188.426 33.136 260.548 89.664-92.264 1.95-169.584 62.376-196.224 145.544 12.996-1.948 25.99-3.248 39.636-3.248 18.842 0 37.686 2.6 55.228 7.146-96.162 19.494-168.286 103.96-168.286 205.97v2.598c27.938-15.594 60.428-25.34 94.862-26.638-56.528 37.686-93.562 102.010-93.562 174.782 0 38.984 10.394 74.72 28.588 105.908 103.31-127.35 258.6-210.516 432.73-219.614-3.248 15.594-5.198 31.836-5.198 48.080 0 115.656 93.564 209.868 209.868 209.868 60.426 0 115.004-25.34 153.34-66.274 47.43 9.096 92.912 26.64 133.198 50.68-15.596-48.732-48.732-89.666-92.264-115.654 42.234 4.546 83.168 16.244 120.852 32.486-28.584-41.582-64.322-78.616-105.256-108.506z" />
<glyph unicode="&#xe927;" glyph-name="user" d="M672 704c0 88.366-71.634 160-160 160s-160-71.634-160-160v0c0-88.366 71.634-160 160-160s160 71.634 160 160v0zM256 704c0 141.385 114.615 256 256 256s256-114.615 256-256v0c0-141.385-114.615-256-256-256s-256 114.615-256 256v0zM162.6 32h698.8c-17.8 126.6-126.6 224-258 224h-182.8c-131.4 0-240.2-97.4-258-224zM64-4.6c0 197 159.6 356.6 356.6 356.6h182.8c197 0 356.6-159.6 356.6-356.6 0-32.8-26.6-59.4-59.4-59.4h-777.2c-32.8 0-59.4 26.6-59.4 59.4z" />
<glyph unicode="&#xe928;" glyph-name="wireframe" d="M604 880c-11.040 0-20-8.96-20-20s8.96-20 20-20 20 8.96 20 20-8.96 20-20 20zM764 880h-80c-11.046 0-20-8.954-20-20s8.954-20 20-20h80c11.046 0 20 8.954 20 20s-8.954 20-20 20zM924 880h-80c-11.046 0-20-8.954-20-20s8.954-20 20-20h80c11.046 0 20 8.954 20 20s-8.954 20-20 20zM964 960h-904c-33.086 0-60-26.914-60-60v-904c0-33.086 26.914-60 60-60h904c33.086 0 60 26.914 60 60v904c0 33.086-26.914 60-60 60zM984-4c0-11.032-8.968-20-20-20h-904c-11.032 0-20 8.968-20 20v764h944zM984 800h-944v100c0 11.032 8.968 20 20 20h904c11.032 0 20-8.968 20-20zM152 508h720c11.046 0 20 8.954 20 20v120c0 11.046-8.954 20-20 20h-720c-11.046 0-20-8.954-20-20v-120c0-11.046 8.954-20 20-20zM172 628h680v-80h-680zM152 62h240c11.046 0 20 8.954 20 20v320c0 11.046-8.954 20-20 20h-240c-11.046 0-20-8.954-20-20v-320c0-11.046 8.954-20 20-20zM172 382h200v-280h-200zM872 422h-360c-0.196 0-0.382-0.024-0.58-0.032-10.974-0.312-19.42-9.366-19.42-19.968v-320c0-0.118 0.016-0.234 0.016-0.352 0.194-11.040 9.258-19.648 19.984-19.648h360c10.78 0 19.79 8.64 19.984 19.648 0 0.118 0.016 0.234 0.016 0.352v320c0 10.92-8.906 20-20 20zM819.4 382l-127.4-113.242-127.4 113.242zM532 357.46l129.9-115.46-129.9-115.46zM564.6 102l127.4 113.242 127.4-113.242zM852 126.54l-129.9 115.46 129.9 115.46z" />
</font>
</defs>
</svg>
