<svg width="64" height="64" fill="none" xmlns="http://www.w3.org/2000/svg"><path fill-rule="evenodd" clip-rule="evenodd" d="M5 4h54a1 1 0 011 1v54a1 1 0 01-1 1H5a1 1 0 01-1-1V5a1 1 0 011-1zM0 5a5 5 0 015-5h54a5 5 0 015 5v54a5 5 0 01-5 5H5a5 5 0 01-5-5V5zm39.272 44h11.904v-1.392a10.063 10.063 0 00-1.728-.624c-.576-.192-1.2-.352-1.872-.48V17.992c.64-.128 1.264-.288 1.872-.48.608-.224 1.2-.464 1.776-.72V15.4h-8.688l-8.64 21.84-1.632 5.04h-.048l-1.632-4.944L22.232 15.4h-9.84v1.392c.64.256 1.28.496 1.92.72.672.192 1.344.352 2.016.48v28.416c-.672.128-1.344.304-2.016.528-.64.192-1.264.416-1.872.672V49h10.032v-1.392a20.983 20.983 0 00-1.824-.672 19.17 19.17 0 00-1.824-.48v-21.6l-.048-6.096h.432l1.728 5.616L30.296 49h1.248l9.84-24.624 1.584-5.136h.384l-.192 5.616v21.6a35.31 35.31 0 00-1.968.528c-.64.16-1.28.368-1.92.624V49z" fill="#FF4B36"/></svg>