<svg width="155" height="46" fill="none" xmlns="http://www.w3.org/2000/svg"><path d="M0 3a3 3 0 013-3h32a3 3 0 013 3v32a3 3 0 01-3 3H3a3 3 0 01-3-3V3zm150.774 42.176c-.997 0-1.833-.323-2.508-.968-.645-.675-.968-1.51-.968-2.508 0-1.027.323-1.863.968-2.508s1.481-.968 2.508-.968 1.863.323 2.508.968.968 1.481.968 2.508c0 .997-.337 1.833-1.012 2.508-.645.645-1.467.968-2.464.968zm-14.609-30.448c0-.147.044-.264.132-.352a.546.546 0 01.396-.176h5.148a.42.42 0 01.352.176.419.419 0 01.176.352v29.744a.549.549 0 01-.176.396.477.477 0 01-.352.132h-4.972c-.294 0-.499-.117-.616-.352l-11.396-18.832c-.059-.088-.118-.117-.176-.088-.059 0-.088.059-.088.176l.088 18.568a.549.549 0 01-.176.396.477.477 0 01-.352.132h-5.148a.642.642 0 01-.396-.132.644.644 0 01-.132-.396V14.728c0-.147.044-.264.132-.352a.546.546 0 01.396-.176h4.972c.293 0 .498.117.616.352l11.352 18.744c.058.088.117.132.176.132.058-.03.088-.103.088-.22l-.044-18.48zM108.537 45c-.293 0-.484-.147-.572-.44l-1.32-4.312c-.059-.117-.132-.176-.22-.176H95.601c-.088 0-.161.059-.22.176l-1.276 4.312c-.088.293-.279.44-.572.44h-5.588c-.176 0-.308-.044-.396-.132-.088-.117-.103-.279-.044-.484l9.504-29.744c.088-.293.279-.44.572-.44h6.908c.293 0 .484.147.572.44l9.504 29.744a.494.494 0 01.044.22c0 .264-.161.396-.484.396h-5.588zm-11.572-9.988c-.03.176.03.264.176.264h7.744c.176 0 .235-.088.176-.264l-3.96-13.068c-.029-.117-.073-.161-.132-.132-.059 0-.103.044-.132.132l-3.872 13.068zM77.383 14.728c0-.147.044-.264.132-.352a.547.547 0 01.396-.176h5.148c.147 0 .264.059.352.176a.418.418 0 01.176.352v29.744a.547.547 0 01-.176.396.476.476 0 01-.352.132h-4.972c-.293 0-.498-.117-.616-.352L66.075 25.816c-.058-.088-.117-.117-.176-.088-.058 0-.088.059-.088.176l.088 18.568a.547.547 0 01-.176.396.476.476 0 01-.352.132h-5.148a.643.643 0 01-.396-.132.644.644 0 01-.132-.396V14.728c0-.147.044-.264.132-.352a.547.547 0 01.396-.176h4.972c.294 0 .499.117.616.352l11.352 18.744c.059.088.118.132.176.132.059-.03.088-.103.088-.22l-.044-18.48z" fill="#FEA202"/><path d="M48.665 45a.644.644 0 01-.396-.132.644.644 0 01-.132-.396V14.728c0-.147.044-.264.132-.352a.547.547 0 01.396-.176h5.148a.42.42 0 01.352.176.418.418 0 01.176.352v29.744a.547.547 0 01-.176.396.476.476 0 01-.352.132h-5.148zM36.484 14.552a.69.69 0 01.616-.352h5.148a.42.42 0 01.352.176.418.418 0 01.176.352v29.744a.547.547 0 01-.176.396.476.476 0 01-.352.132H37.1a.643.643 0 01-.396-.132.644.644 0 01-.132-.396V25.068c0-.117-.03-.176-.088-.176-.06 0-.118.044-.176.132l-4.664 7.304a.69.69 0 01-.616.352h-2.596a.69.69 0 01-.616-.352l-4.664-7.304c-.06-.088-.118-.117-.176-.088-.06 0-.088.059-.088.176v19.36a.547.547 0 01-.176.396.476.476 0 01-.352.132h-5.148a.643.643 0 01-.396-.132.644.644 0 01-.132-.396V14.728c0-.147.044-.264.132-.352a.547.547 0 01.396-.176h5.148a.69.69 0 01.616.352l6.6 10.252c.088.176.176.176.264 0l6.644-10.252z" fill="#fff"/></svg>